solid LCD Mount
facet normal 0.7071067808688264 -0.7071067814923326 -4.108567455803125e-06
  outer loop
    vertex 49.471558740567616 30.02370137727348 0.00033956795379606327
    vertex 49.470841021028654 30.02295459996628 5.001339460742981
    vertex 45.93531818752472 26.487460833365684 -0.0006959875833643786
  endloop
endfacet
facet normal 0.7071067808688264 -0.7071067814923326 -4.108567455803125e-06
  outer loop
    vertex 45.93460032448094 26.486713906743763 5.001303832705129
    vertex 45.93531818752472 26.487460833365684 -0.0006959875833643786
    vertex 49.470841021028654 30.02295459996628 5.001339460742981
  endloop
endfacet
facet normal -0.7071067669402661 -0.7071067651135977 -0.00020706971623838717
  outer loop
    vertex 49.470841021028654 30.02295459996628 5.001339460742981
    vertex 49.471558740567616 30.02370137727348 0.00033956795379606327
    vertex 60.076735678530746 19.417059933112135 5.001277836339416
  endloop
endfacet
facet normal -0.7071067669402661 -0.7071067651135977 -0.00020706971623838717
  outer loop
    vertex 60.0774533980697 19.417806710419296 0.0002779435502268533
    vertex 60.076735678530746 19.417059933112135 5.001277836339416
    vertex 49.471558740567616 30.02370137727348 0.00033956795379606327
  endloop
endfacet
facet normal -0.7071067808688235 0.7071067814923355 4.108567452624101e-06
  outer loop
    vertex 45.228210999824434 34.267049121758404 0.0003642234668012789
    vertex 41.69197044678148 30.730808577850624 -0.0006713320703591575
    vertex 45.227493280285465 34.26630234445124 5.001364116255993
  endloop
endfacet
facet normal -0.7071067808688235 0.7071067814923355 4.108567452624101e-06
  outer loop
    vertex 41.69125258373772 30.730061651228706 5.00132848821814
    vertex 45.227493280285465 34.26630234445124 5.001364116255993
    vertex 41.69197044678148 30.730808577850624 -0.0006713320703591575
  endloop
endfacet
facet normal 0.7071067808688216 -0.7071067814923373 -4.108567453589265e-06
  outer loop
    vertex 64.32080147598771 15.174458628759572 0.00025328803526251557
    vertex 64.32008375644875 15.173711851452403 5.001253180824452
    vertex 60.7845609229448 11.638218084851816 -0.0007822675018979263
  endloop
endfacet
facet normal 0.7071067808688216 -0.7071067814923373 -4.108567453589265e-06
  outer loop
    vertex 60.78384305990101 11.637471158229873 5.001217552786599
    vertex 60.7845609229448 11.638218084851816 -0.0007822675018979263
    vertex 64.32008375644875 15.173711851452403 5.001253180824452
  endloop
endfacet
facet normal -0.7071067669402676 -0.7071067651135964 -0.00020706971624008384
  outer loop
    vertex 56.54049498198297 15.880819239889616 5.001242208301559
    vertex 56.54121284502676 15.881566166511572 -0.0007576119869335899
    vertex 60.78384305990101 11.637471158229873 5.001217552786599
  endloop
endfacet
facet normal -0.7071067669402676 -0.7071067651135964 -0.00020706971624008384
  outer loop
    vertex 60.7845609229448 11.638218084851816 -0.0007822675018979263
    vertex 60.78384305990101 11.637471158229873 5.001217552786599
    vertex 56.54121284502676 15.881566166511572 -0.0007576119869335899
  endloop
endfacet
facet normal -0.707106664259424 -0.7071068676118536 -0.00020769223118877826
  outer loop
    vertex 64.32008375644875 15.173711851452403 5.001253180824452
    vertex 64.32080147598771 15.174458628759572 0.00025328803526251557
    vertex 79.49379563902596 -3.71049060698958e-08 5.001140698565403
  endloop
endfacet
facet normal -0.707106664259424 -0.7071068676118536 -0.00020769223118877826
  outer loop
    vertex 79.49450851552855 0.0007603815581312179 0.00016512417141343138
    vertex 79.49379563902596 -3.71049060698958e-08 5.001140698565403
    vertex 64.32080147598771 15.174458628759572 0.00025328803526251557
  endloop
endfacet
facet normal -0.7071067808688174 0.7071067814923416 4.108567454618047e-06
  outer loop
    vertex 60.0774533980697 19.417806710419296 0.0002779435502268533
    vertex 56.54121284502676 15.881566166511572 -0.0007576119869335899
    vertex 60.076735678530746 19.417059933112135 5.001277836339416
  endloop
endfacet
facet normal -0.7071067808688174 0.7071067814923416 4.108567454618047e-06
  outer loop
    vertex 56.54049498198297 15.880819239889616 5.001242208301559
    vertex 60.076735678530746 19.417059933112135 5.001277836339416
    vertex 56.54121284502676 15.881566166511572 -0.0007576119869335899
  endloop
endfacet
facet normal -0.7071067669402678 -0.7071067651135964 -0.0002070697162343588
  outer loop
    vertex 41.69125258373772 30.730061651228706 5.00132848821814
    vertex 41.69197044678148 30.730808577850624 -0.0006713320703591575
    vertex 45.93460032448094 26.486713906743763 5.001303832705129
  endloop
endfacet
facet normal -0.7071067669402678 -0.7071067651135964 -0.0002070697162343588
  outer loop
    vertex 45.93531818752472 26.487460833365684 -0.0006959875833643786
    vertex 45.93460032448094 26.486713906743763 5.001303832705129
    vertex 41.69197044678148 30.730808577850624 -0.0006713320703591575
  endloop
endfacet
facet normal 0.9999999898401077 -1.149579107994332e-08 0.00014254748143824352
  outer loop
    vertex 79.49450843246994 8.483212089791822 0.0014317713462058668
    vertex 79.4937955525285 8.48245166729476 5.00243166278787
    vertex 79.49450851552855 0.0007603815581312179 0.00016512417141343138
  endloop
endfacet
facet normal 0.9999999898401077 -1.149579107994332e-08 0.00014254748143824352
  outer loop
    vertex 79.49379563902596 -3.71049060698958e-08 5.001140698565403
    vertex 79.49450851552855 0.0007603815581312179 0.00016512417141343138
    vertex 79.4937955525285 8.48245166729476 5.00243166278787
  endloop
endfacet
facet normal 0.7682212651118567 0.6401843832746714 0.00020794510535573538
  outer loop
    vertex 44.74149350674842 72.57746408059869 0.006111219817135714
    vertex 39.74149348761099 78.57746405894441 0.006373191672599097
    vertex 44.740796772632926 72.5766758109819 5.0068726481457215
  endloop
endfacet
facet normal 0.7682212651118567 0.6401843832746714 0.00020794510535573538
  outer loop
    vertex 39.7407967534955 78.57667578932768 5.007134620001187
    vertex 44.740796772632926 72.5766758109819 5.0068726481457215
    vertex 39.74149348761099 78.57746405894441 0.006373191672599097
  endloop
endfacet
facet normal 9.539993762436851e-09 0.9999999879955054 0.00015494834340840286
  outer loop
    vertex 30.999571171870194 56.976676151367435 5.002526401358872
    vertex 44.740796938384214 56.97667544476028 5.004453726232601
    vertex 31.000338097499675 56.977450381722896 0.0022335863709472643
  endloop
endfacet
facet normal 9.539993762436851e-09 0.9999999879955054 0.00015494834340840286
  outer loop
    vertex 44.741498231330645 56.977450740217485 0.004453835522082026
    vertex 31.000338097499675 56.977450381722896 0.0022335863709472643
    vertex 44.740796938384214 56.97667544476028 5.004453726232601
  endloop
endfacet
facet normal -0.9999999901216706 -5.400637301933254e-07 -0.00014055734418764367
  outer loop
    vertex 25.000289018815447 54.49497126372317 8.804990946681543e-06
    vertex 24.999571257093645 54.49422444399794 5.0013016315157754
    vertex 25.00026795952561 75.57747025351777 0.003380435967170538
  endloop
endfacet
facet normal -0.9999999901216706 -5.400637301933254e-07 -0.00014055734418764367
  outer loop
    vertex 24.9995710292708 75.57667599005384 5.004597650675586
    vertex 25.00026795952561 75.57747025351777 0.003380435967170538
    vertex 24.999571257093645 54.49422444399794 5.0013016315157754
  endloop
endfacet
facet normal 3.0760982881939666e-08 -0.9999999879955028 -0.00015494835710674217
  outer loop
    vertex 30.99957100611891 72.57667596382956 5.004945323186127
    vertex 31.000337931748398 72.57745019418495 0.004652508198203534
    vertex 44.740796772632926 72.5766758109819 5.0068726481457215
  endloop
endfacet
facet normal 3.0760982881939666e-08 -0.9999999879955028 -0.00015494835710674217
  outer loop
    vertex 44.74149350674842 72.57746408059869 0.006111219817135714
    vertex 44.740796772632926 72.5766758109819 5.0068726481457215
    vertex 31.000337931748398 72.57745019418495 0.004652508198203534
  endloop
endfacet
facet normal -1.1147595184470248e-08 0.9999999873889219 0.0001588148477150508
  outer loop
    vertex 29.24079685404004 78.57667590305536 5.005681497531113
    vertex 39.7407967534955 78.57667578932768 5.007134620001187
    vertex 29.24149378429484 78.57747016651928 0.0044642828226963424
  endloop
endfacet
facet normal -1.1147595184470248e-08 0.9999999873889219 0.0001588148477150508
  outer loop
    vertex 39.74149348761099 78.57746405894441 0.006373191672599097
    vertex 29.24149378429484 78.57747016651928 0.0044642828226963424
    vertex 39.7407967534955 78.57667578932768 5.007134620001187
  endloop
endfacet
facet normal 0.9999999882377955 -1.315736832188424e-08 0.00015337668912997036
  outer loop
    vertex 31.000337931748398 72.57745019418495 0.004652508198203534
    vertex 30.99957100611891 72.57667596382956 5.004945323186127
    vertex 31.000338097499675 56.977450381722896 0.0022335863709472643
  endloop
endfacet
facet normal 0.9999999882377955 -1.315736832188424e-08 0.00015337668912997036
  outer loop
    vertex 30.999571171870194 56.976676151367435 5.002526401358872
    vertex 31.000338097499675 56.977450381722896 0.0022335863709472643
    vertex 30.99957100611891 72.57667596382956 5.004945323186127
  endloop
endfacet
facet normal -0.577478646030378 0.8164057881714167 4.918464365881916e-05
  outer loop
    vertex 24.9995710292708 75.57667599005384 5.004597650675586
    vertex 29.24079685404004 78.57667590305536 5.005681497531113
    vertex 25.00026795952561 75.57747025351777 0.003380435967170538
  endloop
endfacet
facet normal -0.577478646030378 0.8164057881714167 4.918464365881916e-05
  outer loop
    vertex 29.24149378429484 78.57747016651928 0.0044642828226963424
    vertex 25.00026795952561 75.57747025351777 0.003380435967170538
    vertex 29.24079685404004 78.57667590305536 5.005681497531113
  endloop
endfacet
facet normal 0.7682212682696692 -0.6401844132015214 8.483218062482681e-06
  outer loop
    vertex 39.741498344262304 50.97745106945961 0.0028221880581094515
    vertex 44.741498231330645 56.977450740217485 0.004453835522082026
    vertex 39.740797051315866 50.97667577400235 5.002822078768626
  endloop
endfacet
facet normal 0.7682212682696692 -0.6401844132015214 8.483218062482681e-06
  outer loop
    vertex 44.740796938384214 56.97667544476028 5.004453726232601
    vertex 39.740797051315866 50.97667577400235 5.002822078768626
    vertex 44.741498231330645 56.977450740217485 0.004453835522082026
  endloop
endfacet
facet normal 4.090189880942507e-09 -0.9999999875000686 -0.00015811344884220037
  outer loop
    vertex 36.99957208123935 50.976675249193626 5.0024484214971885
    vertex 37.00028160877491 50.977466050654165 0.0020533836304129443
    vertex 39.740797051315866 50.97667577400235 5.002822078768626
  endloop
endfacet
facet normal 4.090189880942507e-09 -0.9999999875000686 -0.00015811344884220037
  outer loop
    vertex 39.741498344262304 50.97745106945961 0.0028221880581094515
    vertex 39.740797051315866 50.97667577400235 5.002822078768626
    vertex 37.00028160877491 50.977466050654165 0.0020533836304129443
  endloop
endfacet
facet normal -0.7071067670313591 -0.7071067650225296 -0.00020706963266950903
  outer loop
    vertex 25.000289018815447 54.49497126372317 8.804990946681543e-06
    vertex 45.228210999824434 34.267049121758404 0.0003642234668012789
    vertex 24.999571257093645 54.49422444399794 5.0013016315157754
  endloop
endfacet
facet normal -0.7071067670313591 -0.7071067650225296 -0.00020706963266950903
  outer loop
    vertex 45.227493280285465 34.26630234445124 5.001364116255993
    vertex 24.999571257093645 54.49422444399794 5.0013016315157754
    vertex 45.228210999824434 34.267049121758404 0.0003642234668012789
  endloop
endfacet
facet normal -0.00012572962027726205 -0.0001315993994607914 0.9999999834368302
  outer loop
    vertex 60.78384305990101 11.637471158229873 5.001217552786599
    vertex 64.32008375644875 15.173711851452403 5.001253180824452
    vertex 56.54049498198297 15.880819239889616 5.001242208301559
  endloop
endfacet
facet normal -0.00012572962027726205 -0.0001315993994607914 0.9999999834368302
  outer loop
    vertex 45.93460032448094 26.486713906743763 5.001303832705129
    vertex 49.470841021028654 30.02295459996628 5.001339460742981
    vertex 41.69125258373772 30.730061651228706 5.00132848821814
  endloop
endfacet
facet normal -0.00012572962027726205 -0.0001315993994607914 0.9999999834368302
  outer loop
    vertex 79.49379563902596 -3.71049060698958e-08 5.001140698565403
    vertex 79.4937955525285 8.48245166729476 5.00243166278787
    vertex 64.32008375644875 15.173711851452403 5.001253180824452
  endloop
endfacet
facet normal -0.00012572962027726205 -0.0001315993994607914 0.9999999834368302
  outer loop
    vertex 36.99957208123935 50.976675249193626 5.0024484214971885
    vertex 64.32008375644875 15.173711851452403 5.001253180824452
    vertex 79.4937955525285 8.48245166729476 5.00243166278787
  endloop
endfacet
facet normal -0.00012572962027726205 -0.0001315993994607914 0.9999999834368302
  outer loop
    vertex 60.076735678530746 19.417059933112135 5.001277836339416
    vertex 64.32008375644875 15.173711851452403 5.001253180824452
    vertex 36.99957208123935 50.976675249193626 5.0024484214971885
  endloop
endfacet
facet normal -0.00012572962027726205 -0.0001315993994607914 0.9999999834368302
  outer loop
    vertex 56.54049498198297 15.880819239889616 5.001242208301559
    vertex 64.32008375644875 15.173711851452403 5.001253180824452
    vertex 60.076735678530746 19.417059933112135 5.001277836339416
  endloop
endfacet
facet normal -0.00012572962027726205 -0.0001315993994607914 0.9999999834368302
  outer loop
    vertex 49.470841021028654 30.02295459996628 5.001339460742981
    vertex 60.076735678530746 19.417059933112135 5.001277836339416
    vertex 36.99957208123935 50.976675249193626 5.0024484214971885
  endloop
endfacet
facet normal -0.00012572962027726205 -0.0001315993994607914 0.9999999834368302
  outer loop
    vertex 45.227493280285465 34.26630234445124 5.001364116255993
    vertex 49.470841021028654 30.02295459996628 5.001339460742981
    vertex 36.99957208123935 50.976675249193626 5.0024484214971885
  endloop
endfacet
facet normal -0.00012572962027726205 -0.0001315993994607914 0.9999999834368302
  outer loop
    vertex 41.69125258373772 30.730061651228706 5.00132848821814
    vertex 49.470841021028654 30.02295459996628 5.001339460742981
    vertex 45.227493280285465 34.26630234445124 5.001364116255993
  endloop
endfacet
facet normal -0.00012572962027726205 -0.0001315993994607914 0.9999999834368302
  outer loop
    vertex 24.999571257093645 54.49422444399794 5.0013016315157754
    vertex 45.227493280285465 34.26630234445124 5.001364116255993
    vertex 36.99957208123935 50.976675249193626 5.0024484214971885
  endloop
endfacet
facet normal -0.00012572962027726205 -0.0001315993994607914 0.9999999834368302
  outer loop
    vertex 39.740797051315866 50.97667577400235 5.002822078768626
    vertex 24.999571257093645 54.49422444399794 5.0013016315157754
    vertex 36.99957208123935 50.976675249193626 5.0024484214971885
  endloop
endfacet
facet normal -0.00012572962027726205 -0.0001315993994607914 0.9999999834368302
  outer loop
    vertex 44.740796938384214 56.97667544476028 5.004453726232601
    vertex 24.999571257093645 54.49422444399794 5.0013016315157754
    vertex 39.740797051315866 50.97667577400235 5.002822078768626
  endloop
endfacet
facet normal -0.00012572962027726205 -0.0001315993994607914 0.9999999834368302
  outer loop
    vertex 30.999571171870194 56.976676151367435 5.002526401358872
    vertex 24.999571257093645 54.49422444399794 5.0013016315157754
    vertex 44.740796938384214 56.97667544476028 5.004453726232601
  endloop
endfacet
facet normal -0.00012572962027726205 -0.0001315993994607914 0.9999999834368302
  outer loop
    vertex 24.9995710292708 75.57667599005384 5.004597650675586
    vertex 24.999571257093645 54.49422444399794 5.0013016315157754
    vertex 30.999571171870194 56.976676151367435 5.002526401358872
  endloop
endfacet
facet normal -0.00012572962027726205 -0.0001315993994607914 0.9999999834368302
  outer loop
    vertex 30.99957100611891 72.57667596382956 5.004945323186127
    vertex 24.9995710292708 75.57667599005384 5.004597650675586
    vertex 30.999571171870194 56.976676151367435 5.002526401358872
  endloop
endfacet
facet normal -0.00012572962027726205 -0.0001315993994607914 0.9999999834368302
  outer loop
    vertex 44.740796772632926 72.5766758109819 5.0068726481457215
    vertex 39.7407967534955 78.57667578932768 5.007134620001187
    vertex 30.99957100611891 72.57667596382956 5.004945323186127
  endloop
endfacet
facet normal -0.00012572962027726205 -0.0001315993994607914 0.9999999834368302
  outer loop
    vertex 24.9995710292708 75.57667599005384 5.004597650675586
    vertex 30.99957100611891 72.57667596382956 5.004945323186127
    vertex 39.7407967534955 78.57667578932768 5.007134620001187
  endloop
endfacet
facet normal -0.00012572962027726205 -0.0001315993994607914 0.9999999834368302
  outer loop
    vertex 29.24079685404004 78.57667590305536 5.005681497531113
    vertex 24.9995710292708 75.57667599005384 5.004597650675586
    vertex 39.7407967534955 78.57667578932768 5.007134620001187
  endloop
endfacet
facet normal 0.00015023179609505077 0.0001556348439640724 -0.9999999766041011
  outer loop
    vertex 79.49450851552855 0.0007603815581312179 0.00016512417141343138
    vertex 64.32080147598771 15.174458628759572 0.00025328803526251557
    vertex 79.49450843246994 8.483212089791822 0.0014317713462058668
  endloop
endfacet
facet normal 0.00015023179609505077 0.0001556348439640724 -0.9999999766041011
  outer loop
    vertex 37.00028160877491 50.977466050654165 0.0020533836304129443
    vertex 79.49450843246994 8.483212089791822 0.0014317713462058668
    vertex 64.32080147598771 15.174458628759572 0.00025328803526251557
  endloop
endfacet
facet normal 0.00015023179609505077 0.0001556348439640724 -0.9999999766041011
  outer loop
    vertex 60.0774533980697 19.417806710419296 0.0002779435502268533
    vertex 37.00028160877491 50.977466050654165 0.0020533836304129443
    vertex 64.32080147598771 15.174458628759572 0.00025328803526251557
  endloop
endfacet
facet normal 0.00015023179609505077 0.0001556348439640724 -0.9999999766041011
  outer loop
    vertex 56.54121284502676 15.881566166511572 -0.0007576119869335899
    vertex 60.0774533980697 19.417806710419296 0.0002779435502268533
    vertex 64.32080147598771 15.174458628759572 0.00025328803526251557
  endloop
endfacet
facet normal 0.00015023179609505077 0.0001556348439640724 -0.9999999766041011
  outer loop
    vertex 49.471558740567616 30.02370137727348 0.00033956795379606327
    vertex 37.00028160877491 50.977466050654165 0.0020533836304129443
    vertex 60.0774533980697 19.417806710419296 0.0002779435502268533
  endloop
endfacet
facet normal 0.00015023179609505077 0.0001556348439640724 -0.9999999766041011
  outer loop
    vertex 45.228210999824434 34.267049121758404 0.0003642234668012789
    vertex 37.00028160877491 50.977466050654165 0.0020533836304129443
    vertex 49.471558740567616 30.02370137727348 0.00033956795379606327
  endloop
endfacet
facet normal 0.00015023179609505077 0.0001556348439640724 -0.9999999766041011
  outer loop
    vertex 41.69197044678148 30.730808577850624 -0.0006713320703591575
    vertex 45.228210999824434 34.267049121758404 0.0003642234668012789
    vertex 49.471558740567616 30.02370137727348 0.00033956795379606327
  endloop
endfacet
facet normal 0.00015023179609505077 0.0001556348439640724 -0.9999999766041011
  outer loop
    vertex 25.000289018815447 54.49497126372317 8.804990946681543e-06
    vertex 37.00028160877491 50.977466050654165 0.0020533836304129443
    vertex 45.228210999824434 34.267049121758404 0.0003642234668012789
  endloop
endfacet
facet normal 0.00015023179609505077 0.0001556348439640724 -0.9999999766041011
  outer loop
    vertex 49.471558740567616 30.02370137727348 0.00033956795379606327
    vertex 45.93531818752472 26.487460833365684 -0.0006959875833643786
    vertex 41.69197044678148 30.730808577850624 -0.0006713320703591575
  endloop
endfacet
facet normal 0.00015023179609505077 0.0001556348439640724 -0.9999999766041011
  outer loop
    vertex 64.32080147598771 15.174458628759572 0.00025328803526251557
    vertex 60.7845609229448 11.638218084851816 -0.0007822675018979263
    vertex 56.54121284502676 15.881566166511572 -0.0007576119869335899
  endloop
endfacet
facet normal 0.00015023179609505077 0.0001556348439640724 -0.9999999766041011
  outer loop
    vertex 39.741498344262304 50.97745106945961 0.0028221880581094515
    vertex 37.00028160877491 50.977466050654165 0.0020533836304129443
    vertex 44.741498231330645 56.977450740217485 0.004453835522082026
  endloop
endfacet
facet normal 0.00015023179609505077 0.0001556348439640724 -0.9999999766041011
  outer loop
    vertex 25.000289018815447 54.49497126372317 8.804990946681543e-06
    vertex 44.741498231330645 56.977450740217485 0.004453835522082026
    vertex 37.00028160877491 50.977466050654165 0.0020533836304129443
  endloop
endfacet
facet normal 0.00015023179609505077 0.0001556348439640724 -0.9999999766041011
  outer loop
    vertex 31.000338097499675 56.977450381722896 0.0022335863709472643
    vertex 44.741498231330645 56.977450740217485 0.004453835522082026
    vertex 25.000289018815447 54.49497126372317 8.804990946681543e-06
  endloop
endfacet
facet normal 0.00015023179609505077 0.0001556348439640724 -0.9999999766041011
  outer loop
    vertex 25.000289018815447 54.49497126372317 8.804990946681543e-06
    vertex 25.00026795952561 75.57747025351777 0.003380435967170538
    vertex 31.000338097499675 56.977450381722896 0.0022335863709472643
  endloop
endfacet
facet normal 0.00015023179609505077 0.0001556348439640724 -0.9999999766041011
  outer loop
    vertex 31.000337931748398 72.57745019418495 0.004652508198203534
    vertex 31.000338097499675 56.977450381722896 0.0022335863709472643
    vertex 25.00026795952561 75.57747025351777 0.003380435967170538
  endloop
endfacet
facet normal 0.00015023179609505077 0.0001556348439640724 -0.9999999766041011
  outer loop
    vertex 44.74149350674842 72.57746408059869 0.006111219817135714
    vertex 31.000337931748398 72.57745019418495 0.004652508198203534
    vertex 25.00026795952561 75.57747025351777 0.003380435967170538
  endloop
endfacet
facet normal 0.00015023179609505077 0.0001556348439640724 -0.9999999766041011
  outer loop
    vertex 39.74149348761099 78.57746405894441 0.006373191672599097
    vertex 44.74149350674842 72.57746408059869 0.006111219817135714
    vertex 25.00026795952561 75.57747025351777 0.003380435967170538
  endloop
endfacet
facet normal 0.00015023179609505077 0.0001556348439640724 -0.9999999766041011
  outer loop
    vertex 29.24149378429484 78.57747016651928 0.0044642828226963424
    vertex 39.74149348761099 78.57746405894441 0.006373191672599097
    vertex 25.00026795952561 75.57747025351777 0.003380435967170538
  endloop
endfacet
facet normal 0.7071068797002757 0.7071066514186556 0.00021023804603106583
  outer loop
    vertex 37.00028160877491 50.977466050654165 0.0020533836304129443
    vertex 36.99957208123935 50.976675249193626 5.0024484214971885
    vertex 79.49450843246994 8.483212089791822 0.0014317713462058668
  endloop
endfacet
facet normal 0.7071068797002757 0.7071066514186556 0.00021023804603106583
  outer loop
    vertex 79.4937955525285 8.48245166729476 5.00243166278787
    vertex 79.49450843246994 8.483212089791822 0.0014317713462058668
    vertex 36.99957208123935 50.976675249193626 5.0024484214971885
  endloop
endfacet
facet normal 0.7071067808688264 -0.7071067814923325 -4.108567455803125e-06
  outer loop
    vertex 24.471558740567605 30.023701377273476 0.0003395679537960385
    vertex 24.470841021028647 30.022954599966273 5.001339460742981
    vertex 20.935318187524707 26.487460833365684 -0.0006959875833644048
  endloop
endfacet
facet normal 0.7071067808688264 -0.7071067814923325 -4.108567455803125e-06
  outer loop
    vertex 20.934600324480932 26.486713906743763 5.001303832705129
    vertex 20.935318187524707 26.487460833365684 -0.0006959875833644048
    vertex 24.470841021028647 30.022954599966273 5.001339460742981
  endloop
endfacet
facet normal -0.7071067669402663 -0.7071067651135978 -0.00020706971623838714
  outer loop
    vertex 24.470841021028647 30.022954599966273 5.001339460742981
    vertex 24.471558740567605 30.023701377273476 0.0003395679537960385
    vertex 35.07673567853073 19.417059933112135 5.001277836339416
  endloop
endfacet
facet normal -0.7071067669402663 -0.7071067651135978 -0.00020706971623838714
  outer loop
    vertex 35.07745339806969 19.417806710419292 0.00027794355022682716
    vertex 35.07673567853073 19.417059933112135 5.001277836339416
    vertex 24.471558740567605 30.023701377273476 0.0003395679537960385
  endloop
endfacet
facet normal -0.7071067808688235 0.7071067814923354 4.108567452624114e-06
  outer loop
    vertex 20.228210999824423 34.267049121758404 0.0003642234668012527
    vertex 16.691970446781482 30.730808577850617 -0.0006713320703591836
    vertex 20.22749328028546 34.26630234445124 5.001364116255993
  endloop
endfacet
facet normal -0.7071067808688235 0.7071067814923354 4.108567452624114e-06
  outer loop
    vertex 16.691252583737715 30.7300616512287 5.00132848821814
    vertex 20.22749328028546 34.26630234445124 5.001364116255993
    vertex 16.691970446781482 30.730808577850617 -0.0006713320703591836
  endloop
endfacet
facet normal 0.7071067808688217 -0.7071067814923373 -4.108567453589266e-06
  outer loop
    vertex 39.3208014759877 15.174458628759572 0.0002532880352624894
    vertex 39.320083756448746 15.173711851452403 5.001253180824452
    vertex 35.784560922944785 11.638218084851816 -0.0007822675018979512
  endloop
endfacet
facet normal 0.7071067808688217 -0.7071067814923373 -4.108567453589266e-06
  outer loop
    vertex 35.783843059901 11.637471158229873 5.001217552786599
    vertex 35.784560922944785 11.638218084851816 -0.0007822675018979512
    vertex 39.320083756448746 15.173711851452403 5.001253180824452
  endloop
endfacet
facet normal -0.7071067669402676 -0.7071067651135963 -0.00020706971624008378
  outer loop
    vertex 31.540494981982967 15.880819239889616 5.001242208301559
    vertex 31.541212845026752 15.88156616651157 -0.0007576119869336147
    vertex 35.783843059901 11.637471158229873 5.001217552786599
  endloop
endfacet
facet normal -0.7071067669402676 -0.7071067651135963 -0.00020706971624008378
  outer loop
    vertex 35.784560922944785 11.638218084851816 -0.0007822675018979512
    vertex 35.783843059901 11.637471158229873 5.001217552786599
    vertex 31.541212845026752 15.88156616651157 -0.0007576119869336147
  endloop
endfacet
facet normal -0.707106664259424 -0.7071068676118536 -0.0002076922311887782
  outer loop
    vertex 39.320083756448746 15.173711851452403 5.001253180824452
    vertex 39.3208014759877 15.174458628759572 0.0002532880352624894
    vertex 54.493795639025954 -3.71049060698958e-08 5.001140698565403
  endloop
endfacet
facet normal -0.707106664259424 -0.7071068676118536 -0.0002076922311887782
  outer loop
    vertex 54.49450851552852 0.0007603815581312179 0.0001651241714134066
    vertex 54.493795639025954 -3.71049060698958e-08 5.001140698565403
    vertex 39.3208014759877 15.174458628759572 0.0002532880352624894
  endloop
endfacet
facet normal -0.7071067808688174 0.7071067814923415 4.108567454618033e-06
  outer loop
    vertex 35.07745339806969 19.417806710419292 0.00027794355022682716
    vertex 31.541212845026752 15.88156616651157 -0.0007576119869336147
    vertex 35.07673567853073 19.417059933112135 5.001277836339416
  endloop
endfacet
facet normal -0.7071067808688174 0.7071067814923415 4.108567454618033e-06
  outer loop
    vertex 31.540494981982967 15.880819239889616 5.001242208301559
    vertex 35.07673567853073 19.417059933112135 5.001277836339416
    vertex 31.541212845026752 15.88156616651157 -0.0007576119869336147
  endloop
endfacet
facet normal -0.7071067669402678 -0.7071067651135963 -0.00020706971623435873
  outer loop
    vertex 16.691252583737715 30.7300616512287 5.00132848821814
    vertex 16.691970446781482 30.730808577850617 -0.0006713320703591836
    vertex 20.934600324480932 26.486713906743763 5.001303832705129
  endloop
endfacet
facet normal -0.7071067669402678 -0.7071067651135963 -0.00020706971623435873
  outer loop
    vertex 20.935318187524707 26.487460833365684 -0.0006959875833644048
    vertex 20.934600324480932 26.486713906743763 5.001303832705129
    vertex 16.691970446781482 30.730808577850617 -0.0006713320703591836
  endloop
endfacet
facet normal 0.9999999898401076 -1.149579107994333e-08 0.0001425474814382435
  outer loop
    vertex 54.49450843246993 8.483212089791822 0.0014317713462058406
    vertex 54.49379555252849 8.48245166729476 5.00243166278787
    vertex 54.49450851552852 0.0007603815581312179 0.0001651241714134066
  endloop
endfacet
facet normal 0.9999999898401076 -1.149579107994333e-08 0.0001425474814382435
  outer loop
    vertex 54.493795639025954 -3.71049060698958e-08 5.001140698565403
    vertex 54.49450851552852 0.0007603815581312179 0.0001651241714134066
    vertex 54.49379555252849 8.48245166729476 5.00243166278787
  endloop
endfacet
facet normal 0.7682212651118568 0.6401843832746714 0.00020794510535573538
  outer loop
    vertex 19.741493506748412 72.57746408059869 0.006111219817135687
    vertex 14.741493487610976 78.5774640589444 0.006373191672599073
    vertex 19.74079677263292 72.57667581098188 5.0068726481457215
  endloop
endfacet
facet normal 0.7682212651118568 0.6401843832746714 0.00020794510535573538
  outer loop
    vertex 14.740796753495491 78.57667578932768 5.007134620001187
    vertex 19.74079677263292 72.57667581098188 5.0068726481457215
    vertex 14.741493487610976 78.5774640589444 0.006373191672599073
  endloop
endfacet
facet normal 9.539993762436866e-09 0.9999999879955055 0.00015494834340840286
  outer loop
    vertex 5.999571171870187 56.976676151367435 5.002526401358872
    vertex 19.740796938384204 56.97667544476028 5.004453726232601
    vertex 6.000338097499669 56.977450381722896 0.0022335863709472383
  endloop
endfacet
facet normal 9.539993762436866e-09 0.9999999879955055 0.00015494834340840286
  outer loop
    vertex 19.74149823133064 56.977450740217485 0.004453835522082
    vertex 6.000338097499669 56.977450381722896 0.0022335863709472383
    vertex 19.740796938384204 56.97667544476028 5.004453726232601
  endloop
endfacet
facet normal -0.9999999901216707 -5.400637301933254e-07 -0.00014055734418764367
  outer loop
    vertex 0.0002890188154422731 54.49497126372317 8.804990946656757e-06
    vertex -0.0004287429063567355 54.49422444399794 5.0013016315157754
    vertex 0.00026795952560224674 75.57747025351776 0.0033804359671705114
  endloop
endfacet
facet normal -0.9999999901216707 -5.400637301933254e-07 -0.00014055734418764367
  outer loop
    vertex -0.0004289707292050498 75.57667599005383 5.004597650675586
    vertex 0.00026795952560224674 75.57747025351776 0.0033804359671705114
    vertex -0.0004287429063567355 54.49422444399794 5.0013016315157754
  endloop
endfacet
facet normal 3.076098288193965e-08 -0.9999999879955027 -0.00015494835710674215
  outer loop
    vertex 5.999571006118905 72.57667596382956 5.004945323186127
    vertex 6.000337931748389 72.57745019418493 0.004652508198203506
    vertex 19.74079677263292 72.57667581098188 5.0068726481457215
  endloop
endfacet
facet normal 3.076098288193965e-08 -0.9999999879955027 -0.00015494835710674215
  outer loop
    vertex 19.741493506748412 72.57746408059869 0.006111219817135687
    vertex 19.74079677263292 72.57667581098188 5.0068726481457215
    vertex 6.000337931748389 72.57745019418493 0.004652508198203506
  endloop
endfacet
facet normal -1.1147595184470237e-08 0.999999987388922 0.0001588148477150508
  outer loop
    vertex 4.240796854040032 78.57667590305536 5.005681497531113
    vertex 14.740796753495491 78.57667578932768 5.007134620001187
    vertex 4.241493784294835 78.57747016651928 0.0044642828226963156
  endloop
endfacet
facet normal -1.1147595184470237e-08 0.999999987388922 0.0001588148477150508
  outer loop
    vertex 14.741493487610976 78.5774640589444 0.006373191672599073
    vertex 4.241493784294835 78.57747016651928 0.0044642828226963156
    vertex 14.740796753495491 78.57667578932768 5.007134620001187
  endloop
endfacet
facet normal 0.9999999882377956 -1.3157368321884252e-08 0.00015337668912997036
  outer loop
    vertex 6.000337931748389 72.57745019418493 0.004652508198203506
    vertex 5.999571006118905 72.57667596382956 5.004945323186127
    vertex 6.000338097499669 56.977450381722896 0.0022335863709472383
  endloop
endfacet
facet normal 0.9999999882377956 -1.3157368321884252e-08 0.00015337668912997036
  outer loop
    vertex 5.999571171870187 56.976676151367435 5.002526401358872
    vertex 6.000338097499669 56.977450381722896 0.0022335863709472383
    vertex 5.999571006118905 72.57667596382956 5.004945323186127
  endloop
endfacet
facet normal -0.577478646030378 0.8164057881714168 4.918464365881916e-05
  outer loop
    vertex -0.0004289707292050498 75.57667599005383 5.004597650675586
    vertex 4.240796854040032 78.57667590305536 5.005681497531113
    vertex 0.00026795952560224674 75.57747025351776 0.0033804359671705114
  endloop
endfacet
facet normal -0.577478646030378 0.8164057881714168 4.918464365881916e-05
  outer loop
    vertex 4.241493784294835 78.57747016651928 0.0044642828226963156
    vertex 0.00026795952560224674 75.57747025351776 0.0033804359671705114
    vertex 4.240796854040032 78.57667590305536 5.005681497531113
  endloop
endfacet
facet normal 0.7682212682696691 -0.6401844132015213 8.483218062482681e-06
  outer loop
    vertex 14.741498344262293 50.9774510694596 0.0028221880581094255
    vertex 19.74149823133064 56.977450740217485 0.004453835522082
    vertex 14.740797051315859 50.97667577400235 5.002822078768626
  endloop
endfacet
facet normal 0.7682212682696691 -0.6401844132015213 8.483218062482681e-06
  outer loop
    vertex 19.740796938384204 56.97667544476028 5.004453726232601
    vertex 14.740797051315859 50.97667577400235 5.002822078768626
    vertex 19.74149823133064 56.977450740217485 0.004453835522082
  endloop
endfacet
facet normal 4.090189880942496e-09 -0.9999999875000687 -0.00015811344884220037
  outer loop
    vertex 11.999572081239348 50.97667524919362 5.0024484214971885
    vertex 12.00028160877491 50.977466050654165 0.0020533836304129183
    vertex 14.740797051315859 50.97667577400235 5.002822078768626
  endloop
endfacet
facet normal 4.090189880942496e-09 -0.9999999875000687 -0.00015811344884220037
  outer loop
    vertex 14.741498344262293 50.9774510694596 0.0028221880581094255
    vertex 14.740797051315859 50.97667577400235 5.002822078768626
    vertex 12.00028160877491 50.977466050654165 0.0020533836304129183
  endloop
endfacet
facet normal -0.7071067670313591 -0.7071067650225294 -0.00020706963266950898
  outer loop
    vertex 0.0002890188154422731 54.49497126372317 8.804990946656757e-06
    vertex 20.228210999824423 34.267049121758404 0.0003642234668012527
    vertex -0.0004287429063567355 54.49422444399794 5.0013016315157754
  endloop
endfacet
facet normal -0.7071067670313591 -0.7071067650225294 -0.00020706963266950898
  outer loop
    vertex 20.22749328028546 34.26630234445124 5.001364116255993
    vertex -0.0004287429063567355 54.49422444399794 5.0013016315157754
    vertex 20.228210999824423 34.267049121758404 0.0003642234668012527
  endloop
endfacet
facet normal -0.00012572962027726205 -0.0001315993994607914 0.9999999834368302
  outer loop
    vertex 35.783843059901 11.637471158229873 5.001217552786599
    vertex 39.320083756448746 15.173711851452403 5.001253180824452
    vertex 31.540494981982967 15.880819239889616 5.001242208301559
  endloop
endfacet
facet normal -0.00012572962027726205 -0.0001315993994607914 0.9999999834368302
  outer loop
    vertex 20.934600324480932 26.486713906743763 5.001303832705129
    vertex 24.470841021028647 30.022954599966273 5.001339460742981
    vertex 16.691252583737715 30.7300616512287 5.00132848821814
  endloop
endfacet
facet normal -0.00012572962027726205 -0.0001315993994607914 0.9999999834368302
  outer loop
    vertex 54.493795639025954 -3.71049060698958e-08 5.001140698565403
    vertex 54.49379555252849 8.48245166729476 5.00243166278787
    vertex 39.320083756448746 15.173711851452403 5.001253180824452
  endloop
endfacet
facet normal -0.00012572962027726205 -0.0001315993994607914 0.9999999834368302
  outer loop
    vertex 11.999572081239348 50.97667524919362 5.0024484214971885
    vertex 39.320083756448746 15.173711851452403 5.001253180824452
    vertex 54.49379555252849 8.48245166729476 5.00243166278787
  endloop
endfacet
facet normal -0.00012572962027726205 -0.0001315993994607914 0.9999999834368302
  outer loop
    vertex 35.07673567853073 19.417059933112135 5.001277836339416
    vertex 39.320083756448746 15.173711851452403 5.001253180824452
    vertex 11.999572081239348 50.97667524919362 5.0024484214971885
  endloop
endfacet
facet normal -0.00012572962027726205 -0.0001315993994607914 0.9999999834368302
  outer loop
    vertex 31.540494981982967 15.880819239889616 5.001242208301559
    vertex 39.320083756448746 15.173711851452403 5.001253180824452
    vertex 35.07673567853073 19.417059933112135 5.001277836339416
  endloop
endfacet
facet normal -0.00012572962027726205 -0.0001315993994607914 0.9999999834368302
  outer loop
    vertex 24.470841021028647 30.022954599966273 5.001339460742981
    vertex 35.07673567853073 19.417059933112135 5.001277836339416
    vertex 11.999572081239348 50.97667524919362 5.0024484214971885
  endloop
endfacet
facet normal -0.00012572962027726205 -0.0001315993994607914 0.9999999834368302
  outer loop
    vertex 20.22749328028546 34.26630234445124 5.001364116255993
    vertex 24.470841021028647 30.022954599966273 5.001339460742981
    vertex 11.999572081239348 50.97667524919362 5.0024484214971885
  endloop
endfacet
facet normal -0.00012572962027726205 -0.0001315993994607914 0.9999999834368302
  outer loop
    vertex 16.691252583737715 30.7300616512287 5.00132848821814
    vertex 24.470841021028647 30.022954599966273 5.001339460742981
    vertex 20.22749328028546 34.26630234445124 5.001364116255993
  endloop
endfacet
facet normal -0.00012572962027726205 -0.0001315993994607914 0.9999999834368302
  outer loop
    vertex -0.0004287429063567355 54.49422444399794 5.0013016315157754
    vertex 20.22749328028546 34.26630234445124 5.001364116255993
    vertex 11.999572081239348 50.97667524919362 5.0024484214971885
  endloop
endfacet
facet normal -0.00012572962027726205 -0.0001315993994607914 0.9999999834368302
  outer loop
    vertex 14.740797051315859 50.97667577400235 5.002822078768626
    vertex -0.0004287429063567355 54.49422444399794 5.0013016315157754
    vertex 11.999572081239348 50.97667524919362 5.0024484214971885
  endloop
endfacet
facet normal -0.00012572962027726205 -0.0001315993994607914 0.9999999834368302
  outer loop
    vertex 19.740796938384204 56.97667544476028 5.004453726232601
    vertex -0.0004287429063567355 54.49422444399794 5.0013016315157754
    vertex 14.740797051315859 50.97667577400235 5.002822078768626
  endloop
endfacet
facet normal -0.00012572962027726205 -0.0001315993994607914 0.9999999834368302
  outer loop
    vertex 5.999571171870187 56.976676151367435 5.002526401358872
    vertex -0.0004287429063567355 54.49422444399794 5.0013016315157754
    vertex 19.740796938384204 56.97667544476028 5.004453726232601
  endloop
endfacet
facet normal -0.00012572962027726205 -0.0001315993994607914 0.9999999834368302
  outer loop
    vertex -0.0004289707292050498 75.57667599005383 5.004597650675586
    vertex -0.0004287429063567355 54.49422444399794 5.0013016315157754
    vertex 5.999571171870187 56.976676151367435 5.002526401358872
  endloop
endfacet
facet normal -0.00012572962027726205 -0.0001315993994607914 0.9999999834368302
  outer loop
    vertex 5.999571006118905 72.57667596382956 5.004945323186127
    vertex -0.0004289707292050498 75.57667599005383 5.004597650675586
    vertex 5.999571171870187 56.976676151367435 5.002526401358872
  endloop
endfacet
facet normal -0.00012572962027726205 -0.0001315993994607914 0.9999999834368302
  outer loop
    vertex 19.74079677263292 72.57667581098188 5.0068726481457215
    vertex 14.740796753495491 78.57667578932768 5.007134620001187
    vertex 5.999571006118905 72.57667596382956 5.004945323186127
  endloop
endfacet
facet normal -0.00012572962027726205 -0.0001315993994607914 0.9999999834368302
  outer loop
    vertex -0.0004289707292050498 75.57667599005383 5.004597650675586
    vertex 5.999571006118905 72.57667596382956 5.004945323186127
    vertex 14.740796753495491 78.57667578932768 5.007134620001187
  endloop
endfacet
facet normal -0.00012572962027726205 -0.0001315993994607914 0.9999999834368302
  outer loop
    vertex 4.240796854040032 78.57667590305536 5.005681497531113
    vertex -0.0004289707292050498 75.57667599005383 5.004597650675586
    vertex 14.740796753495491 78.57667578932768 5.007134620001187
  endloop
endfacet
facet normal 0.00015023179609505077 0.0001556348439640724 -0.9999999766041011
  outer loop
    vertex 54.49450851552852 0.0007603815581312179 0.0001651241714134066
    vertex 39.3208014759877 15.174458628759572 0.0002532880352624894
    vertex 54.49450843246993 8.483212089791822 0.0014317713462058406
  endloop
endfacet
facet normal 0.00015023179609505077 0.0001556348439640724 -0.9999999766041011
  outer loop
    vertex 12.00028160877491 50.977466050654165 0.0020533836304129183
    vertex 54.49450843246993 8.483212089791822 0.0014317713462058406
    vertex 39.3208014759877 15.174458628759572 0.0002532880352624894
  endloop
endfacet
facet normal 0.00015023179609505077 0.0001556348439640724 -0.9999999766041011
  outer loop
    vertex 35.07745339806969 19.417806710419292 0.00027794355022682716
    vertex 12.00028160877491 50.977466050654165 0.0020533836304129183
    vertex 39.3208014759877 15.174458628759572 0.0002532880352624894
  endloop
endfacet
facet normal 0.00015023179609505077 0.0001556348439640724 -0.9999999766041011
  outer loop
    vertex 31.541212845026752 15.88156616651157 -0.0007576119869336147
    vertex 35.07745339806969 19.417806710419292 0.00027794355022682716
    vertex 39.3208014759877 15.174458628759572 0.0002532880352624894
  endloop
endfacet
facet normal 0.00015023179609505077 0.0001556348439640724 -0.9999999766041011
  outer loop
    vertex 24.471558740567605 30.023701377273476 0.0003395679537960385
    vertex 12.00028160877491 50.977466050654165 0.0020533836304129183
    vertex 35.07745339806969 19.417806710419292 0.00027794355022682716
  endloop
endfacet
facet normal 0.00015023179609505077 0.0001556348439640724 -0.9999999766041011
  outer loop
    vertex 20.228210999824423 34.267049121758404 0.0003642234668012527
    vertex 12.00028160877491 50.977466050654165 0.0020533836304129183
    vertex 24.471558740567605 30.023701377273476 0.0003395679537960385
  endloop
endfacet
facet normal 0.00015023179609505077 0.0001556348439640724 -0.9999999766041011
  outer loop
    vertex 16.691970446781482 30.730808577850617 -0.0006713320703591836
    vertex 20.228210999824423 34.267049121758404 0.0003642234668012527
    vertex 24.471558740567605 30.023701377273476 0.0003395679537960385
  endloop
endfacet
facet normal 0.00015023179609505077 0.0001556348439640724 -0.9999999766041011
  outer loop
    vertex 0.0002890188154422731 54.49497126372317 8.804990946656757e-06
    vertex 12.00028160877491 50.977466050654165 0.0020533836304129183
    vertex 20.228210999824423 34.267049121758404 0.0003642234668012527
  endloop
endfacet
facet normal 0.00015023179609505077 0.0001556348439640724 -0.9999999766041011
  outer loop
    vertex 24.471558740567605 30.023701377273476 0.0003395679537960385
    vertex 20.935318187524707 26.487460833365684 -0.0006959875833644048
    vertex 16.691970446781482 30.730808577850617 -0.0006713320703591836
  endloop
endfacet
facet normal 0.00015023179609505077 0.0001556348439640724 -0.9999999766041011
  outer loop
    vertex 39.3208014759877 15.174458628759572 0.0002532880352624894
    vertex 35.784560922944785 11.638218084851816 -0.0007822675018979512
    vertex 31.541212845026752 15.88156616651157 -0.0007576119869336147
  endloop
endfacet
facet normal 0.00015023179609505077 0.0001556348439640724 -0.9999999766041011
  outer loop
    vertex 14.741498344262293 50.9774510694596 0.0028221880581094255
    vertex 12.00028160877491 50.977466050654165 0.0020533836304129183
    vertex 19.74149823133064 56.977450740217485 0.004453835522082
  endloop
endfacet
facet normal 0.00015023179609505077 0.0001556348439640724 -0.9999999766041011
  outer loop
    vertex 0.0002890188154422731 54.49497126372317 8.804990946656757e-06
    vertex 19.74149823133064 56.977450740217485 0.004453835522082
    vertex 12.00028160877491 50.977466050654165 0.0020533836304129183
  endloop
endfacet
facet normal 0.00015023179609505077 0.0001556348439640724 -0.9999999766041011
  outer loop
    vertex 6.000338097499669 56.977450381722896 0.0022335863709472383
    vertex 19.74149823133064 56.977450740217485 0.004453835522082
    vertex 0.0002890188154422731 54.49497126372317 8.804990946656757e-06
  endloop
endfacet
facet normal 0.00015023179609505077 0.0001556348439640724 -0.9999999766041011
  outer loop
    vertex 0.0002890188154422731 54.49497126372317 8.804990946656757e-06
    vertex 0.00026795952560224674 75.57747025351776 0.0033804359671705114
    vertex 6.000338097499669 56.977450381722896 0.0022335863709472383
  endloop
endfacet
facet normal 0.00015023179609505077 0.0001556348439640724 -0.9999999766041011
  outer loop
    vertex 6.000337931748389 72.57745019418493 0.004652508198203506
    vertex 6.000338097499669 56.977450381722896 0.0022335863709472383
    vertex 0.00026795952560224674 75.57747025351776 0.0033804359671705114
  endloop
endfacet
facet normal 0.00015023179609505077 0.0001556348439640724 -0.9999999766041011
  outer loop
    vertex 19.741493506748412 72.57746408059869 0.006111219817135687
    vertex 6.000337931748389 72.57745019418493 0.004652508198203506
    vertex 0.00026795952560224674 75.57747025351776 0.0033804359671705114
  endloop
endfacet
facet normal 0.00015023179609505077 0.0001556348439640724 -0.9999999766041011
  outer loop
    vertex 14.741493487610976 78.5774640589444 0.006373191672599073
    vertex 19.741493506748412 72.57746408059869 0.006111219817135687
    vertex 0.00026795952560224674 75.57747025351776 0.0033804359671705114
  endloop
endfacet
facet normal 0.00015023179609505077 0.0001556348439640724 -0.9999999766041011
  outer loop
    vertex 4.241493784294835 78.57747016651928 0.0044642828226963156
    vertex 14.741493487610976 78.5774640589444 0.006373191672599073
    vertex 0.00026795952560224674 75.57747025351776 0.0033804359671705114
  endloop
endfacet
facet normal 0.7071068797002756 0.7071066514186555 0.00021023804603106583
  outer loop
    vertex 12.00028160877491 50.977466050654165 0.0020533836304129183
    vertex 11.999572081239348 50.97667524919362 5.0024484214971885
    vertex 54.49450843246993 8.483212089791822 0.0014317713462058406
  endloop
endfacet
facet normal 0.7071068797002756 0.7071066514186555 0.00021023804603106583
  outer loop
    vertex 54.49379555252849 8.48245166729476 5.00243166278787
    vertex 54.49450843246993 8.483212089791822 0.0014317713462058406
    vertex 11.999572081239348 50.97667524919362 5.0024484214971885
  endloop
endfacet
endsolid LCD Mount
