solid LCD Mount
facet normal 0.7071067808688264 -0.7071067814923326 -4.108567455803125e-06
  outer loop
    vertex 54.471558740567616 30.02370137727348 0.00033956795379606327
    vertex 54.470841021028654 30.02295459996628 5.001339460742981
    vertex 50.93531818752472 26.487460833365684 -0.0006959875833643786
  endloop
endfacet
facet normal 0.7071067808688264 -0.7071067814923326 -4.108567455803125e-06
  outer loop
    vertex 50.93460032448095 26.486713906743763 5.001303832705129
    vertex 50.93531818752472 26.487460833365684 -0.0006959875833643786
    vertex 54.470841021028654 30.02295459996628 5.001339460742981
  endloop
endfacet
facet normal -0.7071067669402661 -0.7071067651135977 -0.00020706971623838717
  outer loop
    vertex 54.470841021028654 30.02295459996628 5.001339460742981
    vertex 54.471558740567616 30.02370137727348 0.00033956795379606327
    vertex 65.07673567853074 19.417059933112135 5.001277836339416
  endloop
endfacet
facet normal -0.7071067669402661 -0.7071067651135977 -0.00020706971623838717
  outer loop
    vertex 65.07745339806971 19.417806710419296 0.0002779435502268533
    vertex 65.07673567853074 19.417059933112135 5.001277836339416
    vertex 54.471558740567616 30.02370137727348 0.00033956795379606327
  endloop
endfacet
facet normal -0.7071067808688235 0.7071067814923355 4.108567452624101e-06
  outer loop
    vertex 50.228210999824434 34.267049121758404 0.0003642234668012789
    vertex 46.69197044678148 30.730808577850624 -0.0006713320703591575
    vertex 50.22749328028547 34.26630234445124 5.001364116255993
  endloop
endfacet
facet normal -0.7071067808688235 0.7071067814923355 4.108567452624101e-06
  outer loop
    vertex 46.69125258373772 30.730061651228706 5.00132848821814
    vertex 50.22749328028547 34.26630234445124 5.001364116255993
    vertex 46.69197044678148 30.730808577850624 -0.0006713320703591575
  endloop
endfacet
facet normal 0.7071067808688216 -0.7071067814923373 -4.108567453589265e-06
  outer loop
    vertex 69.32080147598772 15.174458628759572 0.00025328803526251557
    vertex 69.32008375644875 15.173711851452403 5.001253180824452
    vertex 65.78456092294479 11.638218084851816 -0.0007822675018979263
  endloop
endfacet
facet normal 0.7071067808688216 -0.7071067814923373 -4.108567453589265e-06
  outer loop
    vertex 65.78384305990102 11.637471158229873 5.001217552786599
    vertex 65.78456092294479 11.638218084851816 -0.0007822675018979263
    vertex 69.32008375644875 15.173711851452403 5.001253180824452
  endloop
endfacet
facet normal -0.7071067669402676 -0.7071067651135964 -0.00020706971624008384
  outer loop
    vertex 61.54049498198298 15.880819239889616 5.001242208301559
    vertex 61.54121284502676 15.881566166511572 -0.0007576119869335899
    vertex 65.78384305990102 11.637471158229873 5.001217552786599
  endloop
endfacet
facet normal -0.7071067669402676 -0.7071067651135964 -0.00020706971624008384
  outer loop
    vertex 65.78456092294479 11.638218084851816 -0.0007822675018979263
    vertex 65.78384305990102 11.637471158229873 5.001217552786599
    vertex 61.54121284502676 15.881566166511572 -0.0007576119869335899
  endloop
endfacet
facet normal -0.707106664259424 -0.7071068676118536 -0.00020769223118877826
  outer loop
    vertex 69.32008375644875 15.173711851452403 5.001253180824452
    vertex 69.32080147598772 15.174458628759572 0.00025328803526251557
    vertex 84.49379563902596 -3.71049060698958e-08 5.001140698565403
  endloop
endfacet
facet normal -0.707106664259424 -0.7071068676118536 -0.00020769223118877826
  outer loop
    vertex 84.49450851552855 0.0007603815581312179 0.00016512417141343138
    vertex 84.49379563902596 -3.71049060698958e-08 5.001140698565403
    vertex 69.32080147598772 15.174458628759572 0.00025328803526251557
  endloop
endfacet
facet normal -0.7071067808688174 0.7071067814923416 4.108567454618047e-06
  outer loop
    vertex 65.07745339806971 19.417806710419296 0.0002779435502268533
    vertex 61.54121284502676 15.881566166511572 -0.0007576119869335899
    vertex 65.07673567853074 19.417059933112135 5.001277836339416
  endloop
endfacet
facet normal -0.7071067808688174 0.7071067814923416 4.108567454618047e-06
  outer loop
    vertex 61.54049498198298 15.880819239889616 5.001242208301559
    vertex 65.07673567853074 19.417059933112135 5.001277836339416
    vertex 61.54121284502676 15.881566166511572 -0.0007576119869335899
  endloop
endfacet
facet normal -0.7071067669402678 -0.7071067651135964 -0.0002070697162343588
  outer loop
    vertex 46.69125258373772 30.730061651228706 5.00132848821814
    vertex 46.69197044678148 30.730808577850624 -0.0006713320703591575
    vertex 50.93460032448095 26.486713906743763 5.001303832705129
  endloop
endfacet
facet normal -0.7071067669402678 -0.7071067651135964 -0.0002070697162343588
  outer loop
    vertex 50.93531818752472 26.487460833365684 -0.0006959875833643786
    vertex 50.93460032448095 26.486713906743763 5.001303832705129
    vertex 46.69197044678148 30.730808577850624 -0.0006713320703591575
  endloop
endfacet
facet normal 0.9999999898401077 -1.1495791079943197e-08 0.00014254748143824352
  outer loop
    vertex 84.49450843246994 8.483212089791822 0.0014317713462058668
    vertex 84.49379555252851 8.48245166729476 5.00243166278787
    vertex 84.49450851552855 0.0007603815581312179 0.00016512417141343138
  endloop
endfacet
facet normal 0.9999999898401077 -1.1495791079943197e-08 0.00014254748143824352
  outer loop
    vertex 84.49379563902596 -3.71049060698958e-08 5.001140698565403
    vertex 84.49450851552855 0.0007603815581312179 0.00016512417141343138
    vertex 84.49379555252851 8.48245166729476 5.00243166278787
  endloop
endfacet
facet normal 0.7682212651118567 0.6401843832746714 0.00020794510535573538
  outer loop
    vertex 49.74149350674842 72.57746408059869 0.006111219817135714
    vertex 44.74149348761099 78.57746405894441 0.006373191672599097
    vertex 49.740796772632926 72.5766758109819 5.0068726481457215
  endloop
endfacet
facet normal 0.7682212651118567 0.6401843832746714 0.00020794510535573538
  outer loop
    vertex 44.7407967534955 78.57667578932768 5.007134620001187
    vertex 49.740796772632926 72.5766758109819 5.0068726481457215
    vertex 44.74149348761099 78.57746405894441 0.006373191672599097
  endloop
endfacet
facet normal 9.539993762436727e-09 0.9999999879955054 0.00015494834340840286
  outer loop
    vertex 35.999571171870194 56.976676151367435 5.002526401358872
    vertex 49.740796938384214 56.97667544476028 5.004453726232601
    vertex 36.00033809749968 56.977450381722896 0.0022335863709472643
  endloop
endfacet
facet normal 9.539993762436727e-09 0.9999999879955054 0.00015494834340840286
  outer loop
    vertex 49.74149823133065 56.977450740217485 0.004453835522082026
    vertex 36.00033809749968 56.977450381722896 0.0022335863709472643
    vertex 49.740796938384214 56.97667544476028 5.004453726232601
  endloop
endfacet
facet normal -0.9999999901216706 -5.400637301933256e-07 -0.00014055734418764367
  outer loop
    vertex 30.00028901881545 54.49497126372317 8.804990946681543e-06
    vertex 29.99957125709365 54.49422444399794 5.0013016315157754
    vertex 30.00026795952561 75.57747025351777 0.003380435967170538
  endloop
endfacet
facet normal -0.9999999901216706 -5.400637301933256e-07 -0.00014055734418764367
  outer loop
    vertex 29.9995710292708 75.57667599005384 5.004597650675586
    vertex 30.00026795952561 75.57747025351777 0.003380435967170538
    vertex 29.99957125709365 54.49422444399794 5.0013016315157754
  endloop
endfacet
facet normal 3.0760982881939785e-08 -0.9999999879955028 -0.00015494835710674217
  outer loop
    vertex 35.99957100611891 72.57667596382956 5.004945323186127
    vertex 36.0003379317484 72.57745019418495 0.004652508198203534
    vertex 49.740796772632926 72.5766758109819 5.0068726481457215
  endloop
endfacet
facet normal 3.0760982881939785e-08 -0.9999999879955028 -0.00015494835710674217
  outer loop
    vertex 49.74149350674842 72.57746408059869 0.006111219817135714
    vertex 49.740796772632926 72.5766758109819 5.0068726481457215
    vertex 36.0003379317484 72.57745019418495 0.004652508198203534
  endloop
endfacet
facet normal -1.1147595184470372e-08 0.9999999873889219 0.0001588148477150508
  outer loop
    vertex 34.24079685404004 78.57667590305536 5.005681497531113
    vertex 44.7407967534955 78.57667578932768 5.007134620001187
    vertex 34.241493784294846 78.57747016651928 0.0044642828226963424
  endloop
endfacet
facet normal -1.1147595184470372e-08 0.9999999873889219 0.0001588148477150508
  outer loop
    vertex 44.74149348761099 78.57746405894441 0.006373191672599097
    vertex 34.241493784294846 78.57747016651928 0.0044642828226963424
    vertex 44.7407967534955 78.57667578932768 5.007134620001187
  endloop
endfacet
facet normal 0.9999999882377955 -1.3157368321884115e-08 0.00015337668912997036
  outer loop
    vertex 36.0003379317484 72.57745019418495 0.004652508198203534
    vertex 35.99957100611891 72.57667596382956 5.004945323186127
    vertex 36.00033809749968 56.977450381722896 0.0022335863709472643
  endloop
endfacet
facet normal 0.9999999882377955 -1.3157368321884115e-08 0.00015337668912997036
  outer loop
    vertex 35.999571171870194 56.976676151367435 5.002526401358872
    vertex 36.00033809749968 56.977450381722896 0.0022335863709472643
    vertex 35.99957100611891 72.57667596382956 5.004945323186127
  endloop
endfacet
facet normal -0.577478646030378 0.8164057881714167 4.918464365881916e-05
  outer loop
    vertex 29.9995710292708 75.57667599005384 5.004597650675586
    vertex 34.24079685404004 78.57667590305536 5.005681497531113
    vertex 30.00026795952561 75.57747025351777 0.003380435967170538
  endloop
endfacet
facet normal -0.577478646030378 0.8164057881714167 4.918464365881916e-05
  outer loop
    vertex 34.241493784294846 78.57747016651928 0.0044642828226963424
    vertex 30.00026795952561 75.57747025351777 0.003380435967170538
    vertex 34.24079685404004 78.57667590305536 5.005681497531113
  endloop
endfacet
facet normal 0.7682212682696692 -0.6401844132015214 8.483218062482681e-06
  outer loop
    vertex 44.741498344262304 50.97745106945961 0.0028221880581094515
    vertex 49.74149823133065 56.977450740217485 0.004453835522082026
    vertex 44.740797051315866 50.97667577400235 5.002822078768626
  endloop
endfacet
facet normal 0.7682212682696692 -0.6401844132015214 8.483218062482681e-06
  outer loop
    vertex 49.740796938384214 56.97667544476028 5.004453726232601
    vertex 44.740797051315866 50.97667577400235 5.002822078768626
    vertex 49.74149823133065 56.977450740217485 0.004453835522082026
  endloop
endfacet
facet normal 4.090189880942631e-09 -0.9999999875000686 -0.00015811344884220037
  outer loop
    vertex 41.99957208123936 50.976675249193626 5.0024484214971885
    vertex 42.00028160877492 50.977466050654165 0.0020533836304129443
    vertex 44.740797051315866 50.97667577400235 5.002822078768626
  endloop
endfacet
facet normal 4.090189880942631e-09 -0.9999999875000686 -0.00015811344884220037
  outer loop
    vertex 44.741498344262304 50.97745106945961 0.0028221880581094515
    vertex 44.740797051315866 50.97667577400235 5.002822078768626
    vertex 42.00028160877492 50.977466050654165 0.0020533836304129443
  endloop
endfacet
facet normal -0.7071067670313591 -0.7071067650225296 -0.00020706963266950903
  outer loop
    vertex 30.00028901881545 54.49497126372317 8.804990946681543e-06
    vertex 50.228210999824434 34.267049121758404 0.0003642234668012789
    vertex 29.99957125709365 54.49422444399794 5.0013016315157754
  endloop
endfacet
facet normal -0.7071067670313591 -0.7071067650225296 -0.00020706963266950903
  outer loop
    vertex 50.22749328028547 34.26630234445124 5.001364116255993
    vertex 29.99957125709365 54.49422444399794 5.0013016315157754
    vertex 50.228210999824434 34.267049121758404 0.0003642234668012789
  endloop
endfacet
facet normal -0.00012572962027726205 -0.0001315993994607914 0.9999999834368302
  outer loop
    vertex 65.78384305990102 11.637471158229873 5.001217552786599
    vertex 69.32008375644875 15.173711851452403 5.001253180824452
    vertex 61.54049498198298 15.880819239889616 5.001242208301559
  endloop
endfacet
facet normal -0.00012572962027726205 -0.0001315993994607914 0.9999999834368302
  outer loop
    vertex 50.93460032448095 26.486713906743763 5.001303832705129
    vertex 54.470841021028654 30.02295459996628 5.001339460742981
    vertex 46.69125258373772 30.730061651228706 5.00132848821814
  endloop
endfacet
facet normal -0.00012572962027726205 -0.0001315993994607914 0.9999999834368302
  outer loop
    vertex 84.49379563902596 -3.71049060698958e-08 5.001140698565403
    vertex 84.49379555252851 8.48245166729476 5.00243166278787
    vertex 69.32008375644875 15.173711851452403 5.001253180824452
  endloop
endfacet
facet normal -0.00012572962027726205 -0.0001315993994607914 0.9999999834368302
  outer loop
    vertex 41.99957208123936 50.976675249193626 5.0024484214971885
    vertex 69.32008375644875 15.173711851452403 5.001253180824452
    vertex 84.49379555252851 8.48245166729476 5.00243166278787
  endloop
endfacet
facet normal -0.00012572962027726205 -0.0001315993994607914 0.9999999834368302
  outer loop
    vertex 65.07673567853074 19.417059933112135 5.001277836339416
    vertex 69.32008375644875 15.173711851452403 5.001253180824452
    vertex 41.99957208123936 50.976675249193626 5.0024484214971885
  endloop
endfacet
facet normal -0.00012572962027726205 -0.0001315993994607914 0.9999999834368302
  outer loop
    vertex 61.54049498198298 15.880819239889616 5.001242208301559
    vertex 69.32008375644875 15.173711851452403 5.001253180824452
    vertex 65.07673567853074 19.417059933112135 5.001277836339416
  endloop
endfacet
facet normal -0.00012572962027726205 -0.0001315993994607914 0.9999999834368302
  outer loop
    vertex 54.470841021028654 30.02295459996628 5.001339460742981
    vertex 65.07673567853074 19.417059933112135 5.001277836339416
    vertex 41.99957208123936 50.976675249193626 5.0024484214971885
  endloop
endfacet
facet normal -0.00012572962027726205 -0.0001315993994607914 0.9999999834368302
  outer loop
    vertex 50.22749328028547 34.26630234445124 5.001364116255993
    vertex 54.470841021028654 30.02295459996628 5.001339460742981
    vertex 41.99957208123936 50.976675249193626 5.0024484214971885
  endloop
endfacet
facet normal -0.00012572962027726205 -0.0001315993994607914 0.9999999834368302
  outer loop
    vertex 46.69125258373772 30.730061651228706 5.00132848821814
    vertex 54.470841021028654 30.02295459996628 5.001339460742981
    vertex 50.22749328028547 34.26630234445124 5.001364116255993
  endloop
endfacet
facet normal -0.00012572962027726205 -0.0001315993994607914 0.9999999834368302
  outer loop
    vertex 29.99957125709365 54.49422444399794 5.0013016315157754
    vertex 50.22749328028547 34.26630234445124 5.001364116255993
    vertex 41.99957208123936 50.976675249193626 5.0024484214971885
  endloop
endfacet
facet normal -0.00012572962027726205 -0.0001315993994607914 0.9999999834368302
  outer loop
    vertex 44.740797051315866 50.97667577400235 5.002822078768626
    vertex 29.99957125709365 54.49422444399794 5.0013016315157754
    vertex 41.99957208123936 50.976675249193626 5.0024484214971885
  endloop
endfacet
facet normal -0.00012572962027726205 -0.0001315993994607914 0.9999999834368302
  outer loop
    vertex 49.740796938384214 56.97667544476028 5.004453726232601
    vertex 29.99957125709365 54.49422444399794 5.0013016315157754
    vertex 44.740797051315866 50.97667577400235 5.002822078768626
  endloop
endfacet
facet normal -0.00012572962027726205 -0.0001315993994607914 0.9999999834368302
  outer loop
    vertex 35.999571171870194 56.976676151367435 5.002526401358872
    vertex 29.99957125709365 54.49422444399794 5.0013016315157754
    vertex 49.740796938384214 56.97667544476028 5.004453726232601
  endloop
endfacet
facet normal -0.00012572962027726205 -0.0001315993994607914 0.9999999834368302
  outer loop
    vertex 29.9995710292708 75.57667599005384 5.004597650675586
    vertex 29.99957125709365 54.49422444399794 5.0013016315157754
    vertex 35.999571171870194 56.976676151367435 5.002526401358872
  endloop
endfacet
facet normal -0.00012572962027726205 -0.0001315993994607914 0.9999999834368302
  outer loop
    vertex 35.99957100611891 72.57667596382956 5.004945323186127
    vertex 29.9995710292708 75.57667599005384 5.004597650675586
    vertex 35.999571171870194 56.976676151367435 5.002526401358872
  endloop
endfacet
facet normal -0.00012572962027726205 -0.0001315993994607914 0.9999999834368302
  outer loop
    vertex 49.740796772632926 72.5766758109819 5.0068726481457215
    vertex 44.7407967534955 78.57667578932768 5.007134620001187
    vertex 35.99957100611891 72.57667596382956 5.004945323186127
  endloop
endfacet
facet normal -0.00012572962027726205 -0.0001315993994607914 0.9999999834368302
  outer loop
    vertex 29.9995710292708 75.57667599005384 5.004597650675586
    vertex 35.99957100611891 72.57667596382956 5.004945323186127
    vertex 44.7407967534955 78.57667578932768 5.007134620001187
  endloop
endfacet
facet normal -0.00012572962027726205 -0.0001315993994607914 0.9999999834368302
  outer loop
    vertex 34.24079685404004 78.57667590305536 5.005681497531113
    vertex 29.9995710292708 75.57667599005384 5.004597650675586
    vertex 44.7407967534955 78.57667578932768 5.007134620001187
  endloop
endfacet
facet normal 0.00015023179609505077 0.0001556348439640724 -0.9999999766041011
  outer loop
    vertex 84.49450851552855 0.0007603815581312179 0.00016512417141343138
    vertex 69.32080147598772 15.174458628759572 0.00025328803526251557
    vertex 84.49450843246994 8.483212089791822 0.0014317713462058668
  endloop
endfacet
facet normal 0.00015023179609505077 0.0001556348439640724 -0.9999999766041011
  outer loop
    vertex 42.00028160877492 50.977466050654165 0.0020533836304129443
    vertex 84.49450843246994 8.483212089791822 0.0014317713462058668
    vertex 69.32080147598772 15.174458628759572 0.00025328803526251557
  endloop
endfacet
facet normal 0.00015023179609505077 0.0001556348439640724 -0.9999999766041011
  outer loop
    vertex 65.07745339806971 19.417806710419296 0.0002779435502268533
    vertex 42.00028160877492 50.977466050654165 0.0020533836304129443
    vertex 69.32080147598772 15.174458628759572 0.00025328803526251557
  endloop
endfacet
facet normal 0.00015023179609505077 0.0001556348439640724 -0.9999999766041011
  outer loop
    vertex 61.54121284502676 15.881566166511572 -0.0007576119869335899
    vertex 65.07745339806971 19.417806710419296 0.0002779435502268533
    vertex 69.32080147598772 15.174458628759572 0.00025328803526251557
  endloop
endfacet
facet normal 0.00015023179609505077 0.0001556348439640724 -0.9999999766041011
  outer loop
    vertex 54.471558740567616 30.02370137727348 0.00033956795379606327
    vertex 42.00028160877492 50.977466050654165 0.0020533836304129443
    vertex 65.07745339806971 19.417806710419296 0.0002779435502268533
  endloop
endfacet
facet normal 0.00015023179609505077 0.0001556348439640724 -0.9999999766041011
  outer loop
    vertex 50.228210999824434 34.267049121758404 0.0003642234668012789
    vertex 42.00028160877492 50.977466050654165 0.0020533836304129443
    vertex 54.471558740567616 30.02370137727348 0.00033956795379606327
  endloop
endfacet
facet normal 0.00015023179609505077 0.0001556348439640724 -0.9999999766041011
  outer loop
    vertex 46.69197044678148 30.730808577850624 -0.0006713320703591575
    vertex 50.228210999824434 34.267049121758404 0.0003642234668012789
    vertex 54.471558740567616 30.02370137727348 0.00033956795379606327
  endloop
endfacet
facet normal 0.00015023179609505077 0.0001556348439640724 -0.9999999766041011
  outer loop
    vertex 30.00028901881545 54.49497126372317 8.804990946681543e-06
    vertex 42.00028160877492 50.977466050654165 0.0020533836304129443
    vertex 50.228210999824434 34.267049121758404 0.0003642234668012789
  endloop
endfacet
facet normal 0.00015023179609505077 0.0001556348439640724 -0.9999999766041011
  outer loop
    vertex 54.471558740567616 30.02370137727348 0.00033956795379606327
    vertex 50.93531818752472 26.487460833365684 -0.0006959875833643786
    vertex 46.69197044678148 30.730808577850624 -0.0006713320703591575
  endloop
endfacet
facet normal 0.00015023179609505077 0.0001556348439640724 -0.9999999766041011
  outer loop
    vertex 69.32080147598772 15.174458628759572 0.00025328803526251557
    vertex 65.78456092294479 11.638218084851816 -0.0007822675018979263
    vertex 61.54121284502676 15.881566166511572 -0.0007576119869335899
  endloop
endfacet
facet normal 0.00015023179609505077 0.0001556348439640724 -0.9999999766041011
  outer loop
    vertex 44.741498344262304 50.97745106945961 0.0028221880581094515
    vertex 42.00028160877492 50.977466050654165 0.0020533836304129443
    vertex 49.74149823133065 56.977450740217485 0.004453835522082026
  endloop
endfacet
facet normal 0.00015023179609505077 0.0001556348439640724 -0.9999999766041011
  outer loop
    vertex 30.00028901881545 54.49497126372317 8.804990946681543e-06
    vertex 49.74149823133065 56.977450740217485 0.004453835522082026
    vertex 42.00028160877492 50.977466050654165 0.0020533836304129443
  endloop
endfacet
facet normal 0.00015023179609505077 0.0001556348439640724 -0.9999999766041011
  outer loop
    vertex 36.00033809749968 56.977450381722896 0.0022335863709472643
    vertex 49.74149823133065 56.977450740217485 0.004453835522082026
    vertex 30.00028901881545 54.49497126372317 8.804990946681543e-06
  endloop
endfacet
facet normal 0.00015023179609505077 0.0001556348439640724 -0.9999999766041011
  outer loop
    vertex 30.00028901881545 54.49497126372317 8.804990946681543e-06
    vertex 30.00026795952561 75.57747025351777 0.003380435967170538
    vertex 36.00033809749968 56.977450381722896 0.0022335863709472643
  endloop
endfacet
facet normal 0.00015023179609505077 0.0001556348439640724 -0.9999999766041011
  outer loop
    vertex 36.0003379317484 72.57745019418495 0.004652508198203534
    vertex 36.00033809749968 56.977450381722896 0.0022335863709472643
    vertex 30.00026795952561 75.57747025351777 0.003380435967170538
  endloop
endfacet
facet normal 0.00015023179609505077 0.0001556348439640724 -0.9999999766041011
  outer loop
    vertex 49.74149350674842 72.57746408059869 0.006111219817135714
    vertex 36.0003379317484 72.57745019418495 0.004652508198203534
    vertex 30.00026795952561 75.57747025351777 0.003380435967170538
  endloop
endfacet
facet normal 0.00015023179609505077 0.0001556348439640724 -0.9999999766041011
  outer loop
    vertex 44.74149348761099 78.57746405894441 0.006373191672599097
    vertex 49.74149350674842 72.57746408059869 0.006111219817135714
    vertex 30.00026795952561 75.57747025351777 0.003380435967170538
  endloop
endfacet
facet normal 0.00015023179609505077 0.0001556348439640724 -0.9999999766041011
  outer loop
    vertex 34.241493784294846 78.57747016651928 0.0044642828226963424
    vertex 44.74149348761099 78.57746405894441 0.006373191672599097
    vertex 30.00026795952561 75.57747025351777 0.003380435967170538
  endloop
endfacet
facet normal 0.7071068797002757 0.7071066514186556 0.00021023804603106583
  outer loop
    vertex 42.00028160877492 50.977466050654165 0.0020533836304129443
    vertex 41.99957208123936 50.976675249193626 5.0024484214971885
    vertex 84.49450843246994 8.483212089791822 0.0014317713462058668
  endloop
endfacet
facet normal 0.7071068797002757 0.7071066514186556 0.00021023804603106583
  outer loop
    vertex 84.49379555252851 8.48245166729476 5.00243166278787
    vertex 84.49450843246994 8.483212089791822 0.0014317713462058668
    vertex 41.99957208123936 50.976675249193626 5.0024484214971885
  endloop
endfacet
endsolid LCD Mount
