solid LCD Mount
facet normal 0.707106780868826 -0.707106781492333 -4.1085674558031144e-06
  outer loop
    vertex 24.47155874056763 31.783668181676923 0.000339567953796044
    vertex 24.470841021028672 31.782921404369713 5.00133946074299
    vertex 20.935318187524732 28.247427637769118 -0.0006959875833644033
  endloop
endfacet
facet normal 0.707106780868826 -0.707106781492333 -4.1085674558031144e-06
  outer loop
    vertex 20.934600324480947 28.246680711147217 5.001303832705135
    vertex 20.935318187524732 28.247427637769118 -0.0006959875833644033
    vertex 24.470841021028672 31.782921404369713 5.00133946074299
  endloop
endfacet
facet normal -0.7071067669402661 -0.707106765113598 -0.00020706971623838722
  outer loop
    vertex 24.470841021028672 31.782921404369713 5.00133946074299
    vertex 24.47155874056763 31.783668181676923 0.000339567953796044
    vertex 35.07673567853073 21.177026737515575 5.001277836339421
  endloop
endfacet
facet normal -0.7071067669402661 -0.707106765113598 -0.00020706971623838722
  outer loop
    vertex 35.07745339806969 21.177773514822732 0.00027794355022682716
    vertex 35.07673567853073 21.177026737515575 5.001277836339421
    vertex 24.47155874056763 31.783668181676923 0.000339567953796044
  endloop
endfacet
facet normal -0.7071067808688232 0.707106781492336 4.108567452624127e-06
  outer loop
    vertex 20.228210999824437 36.02701592616185 0.00036422346680125547
    vertex 16.691970446781486 32.490775382254064 -0.0006713320703591809
    vertex 20.227493280285476 36.026269148854674 5.001364116255999
  endloop
endfacet
facet normal -0.7071067808688232 0.707106781492336 4.108567452624127e-06
  outer loop
    vertex 16.69125258373773 32.490028455632164 5.001328488218146
    vertex 20.227493280285476 36.026269148854674 5.001364116255999
    vertex 16.691970446781486 32.490775382254064 -0.0006713320703591809
  endloop
endfacet
facet normal 0.7071067808688213 -0.7071067814923377 -4.108567453589251e-06
  outer loop
    vertex 39.320801475987714 16.934425433163 0.00025328803526249627
    vertex 39.32008375644876 16.933678655855843 5.001253180824458
    vertex 35.78456092294481 13.398184889255246 -0.0007822675018979498
  endloop
endfacet
facet normal 0.7071067808688213 -0.7071067814923377 -4.108567453589251e-06
  outer loop
    vertex 35.78384305990103 13.397437962633303 5.001217552786605
    vertex 35.78456092294481 13.398184889255246 -0.0007822675018979498
    vertex 39.32008375644876 16.933678655855843 5.001253180824458
  endloop
endfacet
facet normal -0.7071067669402675 -0.7071067651135966 -0.00020706971624008384
  outer loop
    vertex 31.54049498198298 17.640786044293044 5.001242208301562
    vertex 31.54121284502677 17.641532970915 -0.0007576119869336133
    vertex 35.78384305990103 13.397437962633303 5.001217552786605
  endloop
endfacet
facet normal -0.7071067669402675 -0.7071067651135966 -0.00020706971624008384
  outer loop
    vertex 35.78456092294481 13.398184889255246 -0.0007822675018979498
    vertex 35.78384305990103 13.397437962633303 5.001217552786605
    vertex 31.54121284502677 17.641532970915 -0.0007576119869336133
  endloop
endfacet
facet normal -0.7068133694574513 -0.7074000407260492 -0.00020769445904276533
  outer loop
    vertex 39.32008375644876 16.933678655855843 5.001253180824458
    vertex 39.320801475987714 16.934425433163 0.00025328803526249627
    vertex 56.26857443535654 -0.0007604186630372877 5.001114029428003
  endloop
endfacet
facet normal -0.7068133694574513 -0.7074000407260492 -0.00020769445904276533
  outer loop
    vertex 56.26928731185912 1.4099832412739487e-15 0.00013845503401006793
    vertex 56.26857443535654 -0.0007604186630372877 5.001114029428003
    vertex 39.320801475987714 16.934425433163 0.00025328803526249627
  endloop
endfacet
facet normal -0.7071067808688171 0.7071067814923421 4.108567454618019e-06
  outer loop
    vertex 35.07745339806969 21.177773514822732 0.00027794355022682716
    vertex 31.54121284502677 17.641532970915 -0.0007576119869336133
    vertex 35.07673567853073 21.177026737515575 5.001277836339421
  endloop
endfacet
facet normal -0.7071067808688171 0.7071067814923421 4.108567454618019e-06
  outer loop
    vertex 31.54049498198298 17.640786044293044 5.001242208301562
    vertex 35.07673567853073 21.177026737515575 5.001277836339421
    vertex 31.54121284502677 17.641532970915 -0.0007576119869336133
  endloop
endfacet
facet normal -0.7071067669402674 -0.7071067651135964 -0.0002070697162343587
  outer loop
    vertex 16.69125258373773 32.490028455632164 5.001328488218146
    vertex 16.691970446781486 32.490775382254064 -0.0006713320703591809
    vertex 20.934600324480947 28.246680711147217 5.001303832705135
  endloop
endfacet
facet normal -0.7071067669402674 -0.7071067651135964 -0.0002070697162343587
  outer loop
    vertex 20.935318187524732 28.247427637769118 -0.0006959875833644033
    vertex 20.934600324480947 28.246680711147217 5.001303832705135
    vertex 16.691970446781486 32.490775382254064 -0.0006713320703591809
  endloop
endfacet
facet normal 0.7682212651118575 0.6401843832746705 0.00020794510536778938
  outer loop
    vertex 27.24149343449815 74.33743080326838 0.007152254993317024
    vertex 22.241493415360715 80.33743078161409 0.007414226848780407
    vertex 27.240796700382646 74.33664253365154 5.007913683321907
  endloop
endfacet
facet normal 0.7682212651118575 0.6401843832746705 0.00020794510536778938
  outer loop
    vertex 22.24079668124522 80.33664251199733 5.008175655177374
    vertex 27.240796700382646 74.33664253365154 5.007913683321907
    vertex 22.241493415360715 80.33743078161409 0.007414226848780407
  endloop
endfacet
facet normal -0.9999999901216706 -5.400637301933256e-07 -0.00014055734418764372
  outer loop
    vertex 0.00028901881544227175 56.25493806812664 8.804990946658134e-06
    vertex -0.00042874290635673784 56.25419124840145 5.001301631515784
    vertex 0.00026795952560224533 77.33743705792128 0.0033804359671705158
  endloop
endfacet
facet normal -0.9999999901216706 -5.400637301933256e-07 -0.00014055734418764372
  outer loop
    vertex -0.0004289707292050516 77.33664279445733 5.004597650675589
    vertex 0.00026795952560224533 77.33743705792128 0.0033804359671705158
    vertex -0.00042874290635673784 56.25419124840145 5.001301631515784
  endloop
endfacet
facet normal 0.9999999882377955 -1.3157368321884211e-08 0.00015337668912997036
  outer loop
    vertex 6.000337931748394 74.33741699858842 0.004652508198203511
    vertex 5.999571006118907 74.3366427682331 5.004945323186131
    vertex 6.000338097499674 58.737417186126365 0.0022335863709472426
  endloop
endfacet
facet normal 0.9999999882377955 -1.3157368321884211e-08 0.00015337668912997036
  outer loop
    vertex 5.9995711718701905 58.73664295577088 5.002526401358878
    vertex 6.000338097499674 58.737417186126365 0.0022335863709472426
    vertex 5.999571006118907 74.3366427682331 5.004945323186131
  endloop
endfacet
facet normal -0.5774786460303778 0.8164057881714168 4.9184643658819164e-05
  outer loop
    vertex -0.0004289707292050516 77.33664279445733 5.004597650675589
    vertex 4.240796854040038 80.33664270745888 5.005681497531118
    vertex 0.00026795952560224533 77.33743705792128 0.0033804359671705158
  endloop
endfacet
facet normal -0.5774786460303778 0.8164057881714168 4.9184643658819164e-05
  outer loop
    vertex 4.241493784294836 80.33743697092275 0.004464282822696323
    vertex 0.00026795952560224533 77.33743705792128 0.0033804359671705158
    vertex 4.240796854040038 80.33664270745888 5.005681497531118
  endloop
endfacet
facet normal 0.7682212682696689 -0.6401844132015218 8.483218064361852e-06
  outer loop
    vertex 22.241498272012027 52.73741779212924 0.003863223234290757
    vertex 27.241498159080372 58.73741746288712 0.00549487069826333
    vertex 22.240796979065593 52.736642496672 5.003863113944813
  endloop
endfacet
facet normal 0.7682212682696689 -0.6401844132015218 8.483218064361852e-06
  outer loop
    vertex 27.240796866133937 58.73664216742992 5.005494761408788
    vertex 22.240796979065593 52.736642496672 5.003863113944813
    vertex 27.241498159080372 58.73741746288712 0.00549487069826333
  endloop
endfacet
facet normal -0.7071067670313592 -0.7071067650225293 -0.00020706963266950898
  outer loop
    vertex 0.00028901881544227175 56.25493806812664 8.804990946658134e-06
    vertex 20.228210999824437 36.02701592616185 0.00036422346680125547
    vertex -0.00042874290635673784 56.25419124840145 5.001301631515784
  endloop
endfacet
facet normal -0.7071067670313592 -0.7071067650225293 -0.00020706963266950898
  outer loop
    vertex 20.227493280285476 36.026269148854674 5.001364116255999
    vertex -0.00042874290635673784 56.25419124840145 5.001301631515784
    vertex 20.228210999824437 36.02701592616185 0.00036422346680125547
  endloop
endfacet
facet normal 0.7069946256560241 0.7072188876810742 0.00021023948906676514
  outer loop
    vertex 11.999572081239352 52.73664205359708 5.002448421497196
    vertex 56.268574348859076 8.481691285736634 5.002404993650473
    vertex 12.000281608774918 52.73743285505767 0.0020533836304129347
  endloop
endfacet
facet normal 0.7069946256560241 0.7072188876810742 0.00021023948906676514
  outer loop
    vertex 56.269287228800536 8.482451708233691 0.0014051022088025088
    vertex 12.000281608774918 52.73743285505767 0.0020533836304129347
    vertex 56.268574348859076 8.481691285736634 5.002404993650473
  endloop
endfacet
facet normal 0.9999999898401076 -1.1495791079947842e-08 0.0001425474814382435
  outer loop
    vertex 56.269287228800536 8.482451708233691 0.0014051022088025088
    vertex 56.268574348859076 8.481691285736634 5.002404993650473
    vertex 56.26928731185912 1.4099832412739487e-15 0.00013845503401006793
  endloop
endfacet
facet normal 0.9999999898401076 -1.1495791079947842e-08 0.0001425474814382435
  outer loop
    vertex 56.26857443535654 -0.0007604186630372877 5.001114029428003
    vertex 56.26928731185912 1.4099832412739487e-15 0.00013845503401006793
    vertex 56.268574348859076 8.481691285736634 5.002404993650473
  endloop
endfacet
facet normal -1.0679467488569773e-08 0.9999999879955526 0.00015494803916874154
  outer loop
    vertex 5.9995711718701905 58.73664295577088 5.002526401358878
    vertex 27.240796866133937 58.73664216742992 5.005494761408788
    vertex 6.000338097499674 58.737417186126365 0.0022335863709472426
  endloop
endfacet
facet normal -1.0679467488569773e-08 0.9999999879955526 0.00015494803916874154
  outer loop
    vertex 27.241498159080372 58.73741746288712 0.00549487069826333
    vertex 6.000338097499674 58.737417186126365 0.0022335863709472426
    vertex 27.240796866133937 58.73664216742992 5.005494761408788
  endloop
endfacet
facet normal 3.3953786079974855e-07 -0.9999999877954829 -0.00015623354023675773
  outer loop
    vertex 5.999571006118907 74.3366427682331 5.004945323186131
    vertex 6.000337931748394 74.33741699858842 0.004652508198203511
    vertex 27.240796700382646 74.33664253365154 5.007913683321907
  endloop
endfacet
facet normal 3.3953786079974855e-07 -0.9999999877954829 -0.00015623354023675773
  outer loop
    vertex 27.24149343449815 74.33743080326838 0.007152254993317024
    vertex 27.240796700382646 74.33664253365154 5.007913683321907
    vertex 6.000337931748394 74.33741699858842 0.004652508198203511
  endloop
endfacet
facet normal 1.5342759146118688e-07 0.99999998748288 0.00015822204795534078
  outer loop
    vertex 4.240796854040038 80.33664270745888 5.005681497531118
    vertex 22.24079668124522 80.33664251199733 5.008175655177374
    vertex 4.241493784294836 80.33743697092275 0.004464282822696323
  endloop
endfacet
facet normal 1.5342759146118688e-07 0.99999998748288 0.00015822204795534078
  outer loop
    vertex 22.241493415360715 80.33743078161409 0.007414226848780407
    vertex 4.241493784294836 80.33743697092275 0.004464282822696323
    vertex 22.24079668124522 80.33664251199733 5.008175655177374
  endloop
endfacet
facet normal -6.891206586782987e-07 -0.999999987737409 -0.0001566036633834394
  outer loop
    vertex 11.999572081239352 52.73664205359708 5.002448421497196
    vertex 12.000281608774918 52.73743285505767 0.0020533836304129347
    vertex 22.240796979065593 52.736642496672 5.003863113944813
  endloop
endfacet
facet normal -6.891206586782987e-07 -0.999999987737409 -0.0001566036633834394
  outer loop
    vertex 22.241498272012027 52.73741779212924 0.003863223234290757
    vertex 22.240796979065593 52.736642496672 5.003863113944813
    vertex 12.000281608774918 52.73743285505767 0.0020533836304129347
  endloop
endfacet
facet normal -0.00012818027578369588 -0.00013364946082313972 0.9999999828538192
  outer loop
    vertex 35.78384305990103 13.397437962633303 5.001217552786605
    vertex 39.32008375644876 16.933678655855843 5.001253180824458
    vertex 31.54049498198298 17.640786044293044 5.001242208301562
  endloop
endfacet
facet normal -0.00012818027578369588 -0.00013364946082313972 0.9999999828538192
  outer loop
    vertex 20.934600324480947 28.246680711147217 5.001303832705135
    vertex 24.470841021028672 31.782921404369713 5.00133946074299
    vertex 16.69125258373773 32.490028455632164 5.001328488218146
  endloop
endfacet
facet normal -0.00012818027578369588 -0.00013364946082313972 0.9999999828538192
  outer loop
    vertex 56.26857443535654 -0.0007604186630372877 5.001114029428003
    vertex 56.268574348859076 8.481691285736634 5.002404993650473
    vertex 39.32008375644876 16.933678655855843 5.001253180824458
  endloop
endfacet
facet normal -0.00012818027578369588 -0.00013364946082313972 0.9999999828538192
  outer loop
    vertex 11.999572081239352 52.73664205359708 5.002448421497196
    vertex 39.32008375644876 16.933678655855843 5.001253180824458
    vertex 56.268574348859076 8.481691285736634 5.002404993650473
  endloop
endfacet
facet normal -0.00012818027578369588 -0.00013364946082313972 0.9999999828538192
  outer loop
    vertex 35.07673567853073 21.177026737515575 5.001277836339421
    vertex 39.32008375644876 16.933678655855843 5.001253180824458
    vertex 11.999572081239352 52.73664205359708 5.002448421497196
  endloop
endfacet
facet normal -0.00012818027578369588 -0.00013364946082313972 0.9999999828538192
  outer loop
    vertex 31.54049498198298 17.640786044293044 5.001242208301562
    vertex 39.32008375644876 16.933678655855843 5.001253180824458
    vertex 35.07673567853073 21.177026737515575 5.001277836339421
  endloop
endfacet
facet normal -0.00012818027578369588 -0.00013364946082313972 0.9999999828538192
  outer loop
    vertex 24.470841021028672 31.782921404369713 5.00133946074299
    vertex 35.07673567853073 21.177026737515575 5.001277836339421
    vertex 11.999572081239352 52.73664205359708 5.002448421497196
  endloop
endfacet
facet normal -0.00012818027578369588 -0.00013364946082313972 0.9999999828538192
  outer loop
    vertex 20.227493280285476 36.026269148854674 5.001364116255999
    vertex 24.470841021028672 31.782921404369713 5.00133946074299
    vertex 11.999572081239352 52.73664205359708 5.002448421497196
  endloop
endfacet
facet normal -0.00012818027578369588 -0.00013364946082313972 0.9999999828538192
  outer loop
    vertex 16.69125258373773 32.490028455632164 5.001328488218146
    vertex 24.470841021028672 31.782921404369713 5.00133946074299
    vertex 20.227493280285476 36.026269148854674 5.001364116255999
  endloop
endfacet
facet normal -0.00012818027578369588 -0.00013364946082313972 0.9999999828538192
  outer loop
    vertex -0.00042874290635673784 56.25419124840145 5.001301631515784
    vertex 20.227493280285476 36.026269148854674 5.001364116255999
    vertex 11.999572081239352 52.73664205359708 5.002448421497196
  endloop
endfacet
facet normal -0.00012818027578369588 -0.00013364946082313972 0.9999999828538192
  outer loop
    vertex 22.240796979065593 52.736642496672 5.003863113944813
    vertex -0.00042874290635673784 56.25419124840145 5.001301631515784
    vertex 11.999572081239352 52.73664205359708 5.002448421497196
  endloop
endfacet
facet normal -0.00012818027578369588 -0.00013364946082313972 0.9999999828538192
  outer loop
    vertex 27.240796866133937 58.73664216742992 5.005494761408788
    vertex -0.00042874290635673784 56.25419124840145 5.001301631515784
    vertex 22.240796979065593 52.736642496672 5.003863113944813
  endloop
endfacet
facet normal -0.00012818027578369588 -0.00013364946082313972 0.9999999828538192
  outer loop
    vertex 5.9995711718701905 58.73664295577088 5.002526401358878
    vertex -0.00042874290635673784 56.25419124840145 5.001301631515784
    vertex 27.240796866133937 58.73664216742992 5.005494761408788
  endloop
endfacet
facet normal -0.00012818027578369588 -0.00013364946082313972 0.9999999828538192
  outer loop
    vertex -0.0004289707292050516 77.33664279445733 5.004597650675589
    vertex -0.00042874290635673784 56.25419124840145 5.001301631515784
    vertex 5.9995711718701905 58.73664295577088 5.002526401358878
  endloop
endfacet
facet normal -0.00012818027578369588 -0.00013364946082313972 0.9999999828538192
  outer loop
    vertex 5.999571006118907 74.3366427682331 5.004945323186131
    vertex -0.0004289707292050516 77.33664279445733 5.004597650675589
    vertex 5.9995711718701905 58.73664295577088 5.002526401358878
  endloop
endfacet
facet normal -0.00012818027578369588 -0.00013364946082313972 0.9999999828538192
  outer loop
    vertex 27.240796700382646 74.33664253365154 5.007913683321907
    vertex 22.24079668124522 80.33664251199733 5.008175655177374
    vertex 5.999571006118907 74.3366427682331 5.004945323186131
  endloop
endfacet
facet normal -0.00012818027578369588 -0.00013364946082313972 0.9999999828538192
  outer loop
    vertex -0.0004289707292050516 77.33664279445733 5.004597650675589
    vertex 5.999571006118907 74.3366427682331 5.004945323186131
    vertex 22.24079668124522 80.33664251199733 5.008175655177374
  endloop
endfacet
facet normal -0.00012818027578369588 -0.00013364946082313972 0.9999999828538192
  outer loop
    vertex 4.240796854040038 80.33664270745888 5.005681497531118
    vertex -0.0004289707292050516 77.33664279445733 5.004597650675589
    vertex 22.24079668124522 80.33664251199733 5.008175655177374
  endloop
endfacet
facet normal 0.00015093505051784264 0.00015551512702599013 -0.9999999765168277
  outer loop
    vertex 56.26928731185912 1.4099832412739487e-15 0.00013845503401006793
    vertex 39.320801475987714 16.934425433163 0.00025328803526249627
    vertex 56.269287228800536 8.482451708233691 0.0014051022088025088
  endloop
endfacet
facet normal 0.00015093505051784264 0.00015551512702599013 -0.9999999765168277
  outer loop
    vertex 12.000281608774918 52.73743285505767 0.0020533836304129347
    vertex 56.269287228800536 8.482451708233691 0.0014051022088025088
    vertex 39.320801475987714 16.934425433163 0.00025328803526249627
  endloop
endfacet
facet normal 0.00015093505051784264 0.00015551512702599013 -0.9999999765168277
  outer loop
    vertex 35.07745339806969 21.177773514822732 0.00027794355022682716
    vertex 12.000281608774918 52.73743285505767 0.0020533836304129347
    vertex 39.320801475987714 16.934425433163 0.00025328803526249627
  endloop
endfacet
facet normal 0.00015093505051784264 0.00015551512702599013 -0.9999999765168277
  outer loop
    vertex 31.54121284502677 17.641532970915 -0.0007576119869336133
    vertex 35.07745339806969 21.177773514822732 0.00027794355022682716
    vertex 39.320801475987714 16.934425433163 0.00025328803526249627
  endloop
endfacet
facet normal 0.00015093505051784264 0.00015551512702599013 -0.9999999765168277
  outer loop
    vertex 24.47155874056763 31.783668181676923 0.000339567953796044
    vertex 12.000281608774918 52.73743285505767 0.0020533836304129347
    vertex 35.07745339806969 21.177773514822732 0.00027794355022682716
  endloop
endfacet
facet normal 0.00015093505051784264 0.00015551512702599013 -0.9999999765168277
  outer loop
    vertex 20.228210999824437 36.02701592616185 0.00036422346680125547
    vertex 12.000281608774918 52.73743285505767 0.0020533836304129347
    vertex 24.47155874056763 31.783668181676923 0.000339567953796044
  endloop
endfacet
facet normal 0.00015093505051784264 0.00015551512702599013 -0.9999999765168277
  outer loop
    vertex 16.691970446781486 32.490775382254064 -0.0006713320703591809
    vertex 20.228210999824437 36.02701592616185 0.00036422346680125547
    vertex 24.47155874056763 31.783668181676923 0.000339567953796044
  endloop
endfacet
facet normal 0.00015093505051784264 0.00015551512702599013 -0.9999999765168277
  outer loop
    vertex 0.00028901881544227175 56.25493806812664 8.804990946658134e-06
    vertex 12.000281608774918 52.73743285505767 0.0020533836304129347
    vertex 20.228210999824437 36.02701592616185 0.00036422346680125547
  endloop
endfacet
facet normal 0.00015093505051784264 0.00015551512702599013 -0.9999999765168277
  outer loop
    vertex 24.47155874056763 31.783668181676923 0.000339567953796044
    vertex 20.935318187524732 28.247427637769118 -0.0006959875833644033
    vertex 16.691970446781486 32.490775382254064 -0.0006713320703591809
  endloop
endfacet
facet normal 0.00015093505051784264 0.00015551512702599013 -0.9999999765168277
  outer loop
    vertex 39.320801475987714 16.934425433163 0.00025328803526249627
    vertex 35.78456092294481 13.398184889255246 -0.0007822675018979498
    vertex 31.54121284502677 17.641532970915 -0.0007576119869336133
  endloop
endfacet
facet normal 0.00015093505051784264 0.00015551512702599013 -0.9999999765168277
  outer loop
    vertex 22.241498272012027 52.73741779212924 0.003863223234290757
    vertex 12.000281608774918 52.73743285505767 0.0020533836304129347
    vertex 27.241498159080372 58.73741746288712 0.00549487069826333
  endloop
endfacet
facet normal 0.00015093505051784264 0.00015551512702599013 -0.9999999765168277
  outer loop
    vertex 0.00028901881544227175 56.25493806812664 8.804990946658134e-06
    vertex 27.241498159080372 58.73741746288712 0.00549487069826333
    vertex 12.000281608774918 52.73743285505767 0.0020533836304129347
  endloop
endfacet
facet normal 0.00015093505051784264 0.00015551512702599013 -0.9999999765168277
  outer loop
    vertex 6.000338097499674 58.737417186126365 0.0022335863709472426
    vertex 27.241498159080372 58.73741746288712 0.00549487069826333
    vertex 0.00028901881544227175 56.25493806812664 8.804990946658134e-06
  endloop
endfacet
facet normal 0.00015093505051784264 0.00015551512702599013 -0.9999999765168277
  outer loop
    vertex 0.00028901881544227175 56.25493806812664 8.804990946658134e-06
    vertex 0.00026795952560224533 77.33743705792128 0.0033804359671705158
    vertex 6.000338097499674 58.737417186126365 0.0022335863709472426
  endloop
endfacet
facet normal 0.00015093505051784264 0.00015551512702599013 -0.9999999765168277
  outer loop
    vertex 6.000337931748394 74.33741699858842 0.004652508198203511
    vertex 6.000338097499674 58.737417186126365 0.0022335863709472426
    vertex 0.00026795952560224533 77.33743705792128 0.0033804359671705158
  endloop
endfacet
facet normal 0.00015093505051784264 0.00015551512702599013 -0.9999999765168277
  outer loop
    vertex 27.24149343449815 74.33743080326838 0.007152254993317024
    vertex 6.000337931748394 74.33741699858842 0.004652508198203511
    vertex 0.00026795952560224533 77.33743705792128 0.0033804359671705158
  endloop
endfacet
facet normal 0.00015093505051784264 0.00015551512702599013 -0.9999999765168277
  outer loop
    vertex 22.241493415360715 80.33743078161409 0.007414226848780407
    vertex 27.24149343449815 74.33743080326838 0.007152254993317024
    vertex 0.00026795952560224533 77.33743705792128 0.0033804359671705158
  endloop
endfacet
facet normal 0.00015093505051784264 0.00015551512702599013 -0.9999999765168277
  outer loop
    vertex 4.241493784294836 80.33743697092275 0.004464282822696323
    vertex 22.241493415360715 80.33743078161409 0.007414226848780407
    vertex 0.00026795952560224533 77.33743705792128 0.0033804359671705158
  endloop
endfacet
facet normal 0.7071067808688261 -0.707106781492333 -4.108567455803115e-06
  outer loop
    vertex 54.47155874056763 31.783668181676855 0.0003395679537876061
    vertex 54.470841021028676 31.78292140436964 5.001339460742981
    vertex 50.93531818752473 28.24742763776905 -0.0006959875833728399
  endloop
endfacet
facet normal 0.7071067808688261 -0.707106781492333 -4.108567455803115e-06
  outer loop
    vertex 50.93460032448095 28.24668071114715 5.001303832705127
    vertex 50.93531818752473 28.24742763776905 -0.0006959875833728399
    vertex 54.470841021028676 31.78292140436964 5.001339460742981
  endloop
endfacet
facet normal -0.7071067669402661 -0.7071067651135979 -0.00020706971623838717
  outer loop
    vertex 54.470841021028676 31.78292140436964 5.001339460742981
    vertex 54.47155874056763 31.783668181676855 0.0003395679537876061
    vertex 65.07673567853074 21.17702673751551 5.001277836339413
  endloop
endfacet
facet normal -0.7071067669402661 -0.7071067651135979 -0.00020706971623838717
  outer loop
    vertex 65.0774533980697 21.177773514822665 0.00027794355021839066
    vertex 65.07673567853074 21.17702673751551 5.001277836339413
    vertex 54.47155874056763 31.783668181676855 0.0003395679537876061
  endloop
endfacet
facet normal -0.7071067808688232 0.7071067814923359 4.108567452624127e-06
  outer loop
    vertex 50.22821099982444 36.02701592616178 0.0003642234667928176
    vertex 46.6919704467815 32.490775382254 -0.0006713320703676174
    vertex 50.22749328028548 36.0262691488546 5.00136411625599
  endloop
endfacet
facet normal -0.7071067808688232 0.7071067814923359 4.108567452624127e-06
  outer loop
    vertex 46.691252583737736 32.49002845563209 5.001328488218137
    vertex 50.22749328028548 36.0262691488546 5.00136411625599
    vertex 46.6919704467815 32.490775382254 -0.0006713320703676174
  endloop
endfacet
facet normal 0.7071067808688214 -0.7071067814923377 -4.1085674535892515e-06
  outer loop
    vertex 69.32080147598772 16.934425433162936 0.00025328803525405977
    vertex 69.32008375644877 16.933678655855775 5.001253180824449
    vertex 65.78456092294482 13.398184889255182 -0.0007822675019063863
  endloop
endfacet
facet normal 0.7071067808688214 -0.7071067814923377 -4.1085674535892515e-06
  outer loop
    vertex 65.78384305990103 13.397437962633239 5.0012175527865965
    vertex 65.78456092294482 13.398184889255182 -0.0007822675019063863
    vertex 69.32008375644877 16.933678655855775 5.001253180824449
  endloop
endfacet
facet normal -0.7071067669402675 -0.7071067651135965 -0.0002070697162400838
  outer loop
    vertex 61.54049498198298 17.64078604429298 5.001242208301554
    vertex 61.54121284502678 17.641532970914938 -0.0007576119869420484
    vertex 65.78384305990103 13.397437962633239 5.0012175527865965
  endloop
endfacet
facet normal -0.7071067669402675 -0.7071067651135965 -0.0002070697162400838
  outer loop
    vertex 65.78456092294482 13.398184889255182 -0.0007822675019063863
    vertex 65.78384305990103 13.397437962633239 5.0012175527865965
    vertex 61.54121284502678 17.641532970914938 -0.0007576119869420484
  endloop
endfacet
facet normal -0.7068133694574513 -0.7074000407260492 -0.00020769445904276527
  outer loop
    vertex 69.32008375644877 16.933678655855775 5.001253180824449
    vertex 69.32080147598772 16.934425433162936 0.00025328803525405977
    vertex 86.26857443535654 -0.000760418663100737 5.001114029427995
  endloop
endfacet
facet normal -0.7068133694574513 -0.7074000407260492 -0.00020769445904276527
  outer loop
    vertex 86.26928731185913 -6.203926261605374e-14 0.00013845503400163145
    vertex 86.26857443535654 -0.000760418663100737 5.001114029427995
    vertex 69.32080147598772 16.934425433162936 0.00025328803525405977
  endloop
endfacet
facet normal -0.7071067808688171 0.707106781492342 4.108567454618032e-06
  outer loop
    vertex 65.0774533980697 21.177773514822665 0.00027794355021839066
    vertex 61.54121284502678 17.641532970914938 -0.0007576119869420484
    vertex 65.07673567853074 21.17702673751551 5.001277836339413
  endloop
endfacet
facet normal -0.7071067808688171 0.707106781492342 4.108567454618032e-06
  outer loop
    vertex 61.54049498198298 17.64078604429298 5.001242208301554
    vertex 65.07673567853074 21.17702673751551 5.001277836339413
    vertex 61.54121284502678 17.641532970914938 -0.0007576119869420484
  endloop
endfacet
facet normal -0.7071067669402676 -0.7071067651135965 -0.0002070697162343587
  outer loop
    vertex 46.691252583737736 32.49002845563209 5.001328488218137
    vertex 46.6919704467815 32.490775382254 -0.0006713320703676174
    vertex 50.93460032448095 28.24668071114715 5.001303832705127
  endloop
endfacet
facet normal -0.7071067669402676 -0.7071067651135965 -0.0002070697162343587
  outer loop
    vertex 50.93531818752473 28.24742763776905 -0.0006959875833728399
    vertex 50.93460032448095 28.24668071114715 5.001303832705127
    vertex 46.6919704467815 32.490775382254 -0.0006713320703676174
  endloop
endfacet
facet normal 0.7682212651118576 0.6401843832746705 0.00020794510536778938
  outer loop
    vertex 57.24149343449816 74.3374308032683 0.007152254993308587
    vertex 52.241493415360715 80.337430781614 0.00741422684877197
    vertex 57.24079670038265 74.33664253365146 5.007913683321898
  endloop
endfacet
facet normal 0.7682212651118576 0.6401843832746705 0.00020794510536778938
  outer loop
    vertex 52.24079668124523 80.33664251199725 5.008175655177366
    vertex 57.24079670038265 74.33664253365146 5.007913683321898
    vertex 52.241493415360715 80.337430781614 0.00741422684877197
  endloop
endfacet
facet normal -0.9999999901216707 -5.400637301933256e-07 -0.00014055734418764372
  outer loop
    vertex 30.00028901881545 56.25493806812658 8.804990938221643e-06
    vertex 29.99957125709365 56.25419124840138 5.0013016315157754
    vertex 30.00026795952561 77.33743705792119 0.0033804359671620794
  endloop
endfacet
facet normal -0.9999999901216707 -5.400637301933256e-07 -0.00014055734418764372
  outer loop
    vertex 29.9995710292708 77.33664279445725 5.004597650675581
    vertex 30.00026795952561 77.33743705792119 0.0033804359671620794
    vertex 29.99957125709365 56.25419124840138 5.0013016315157754
  endloop
endfacet
facet normal 0.9999999882377956 -1.31573683218842e-08 0.00015337668912997036
  outer loop
    vertex 36.0003379317484 74.33741699858835 0.0046525081981950754
    vertex 35.99957100611891 74.33664276823302 5.004945323186123
    vertex 36.000338097499686 58.737417186126294 0.002233586370938806
  endloop
endfacet
facet normal 0.9999999882377956 -1.31573683218842e-08 0.00015337668912997036
  outer loop
    vertex 35.999571171870194 58.73664295577082 5.00252640135887
    vertex 36.000338097499686 58.737417186126294 0.002233586370938806
    vertex 35.99957100611891 74.33664276823302 5.004945323186123
  endloop
endfacet
facet normal -0.5774786460303778 0.816405788171417 4.9184643658819164e-05
  outer loop
    vertex 29.9995710292708 77.33664279445725 5.004597650675581
    vertex 34.24079685404005 80.33664270745881 5.005681497531109
    vertex 30.00026795952561 77.33743705792119 0.0033804359671620794
  endloop
endfacet
facet normal -0.5774786460303778 0.816405788171417 4.9184643658819164e-05
  outer loop
    vertex 34.241493784294846 80.33743697092268 0.004464282822687887
    vertex 30.00026795952561 77.33743705792119 0.0033804359671620794
    vertex 34.24079685404005 80.33664270745881 5.005681497531109
  endloop
endfacet
facet normal 0.768221268269669 -0.6401844132015218 8.48321806436184e-06
  outer loop
    vertex 52.24149827201203 52.73741779212918 0.003863223234282321
    vertex 57.241498159080386 58.73741746288706 0.005494870698254892
    vertex 52.2407969790656 52.73664249667193 5.003863113944804
  endloop
endfacet
facet normal 0.768221268269669 -0.6401844132015218 8.48321806436184e-06
  outer loop
    vertex 57.24079686613394 58.73664216742986 5.005494761408779
    vertex 52.2407969790656 52.73664249667193 5.003863113944804
    vertex 57.241498159080386 58.73741746288706 0.005494870698254892
  endloop
endfacet
facet normal -0.7071067670313592 -0.7071067650225292 -0.00020706963266950898
  outer loop
    vertex 30.00028901881545 56.25493806812658 8.804990938221643e-06
    vertex 50.22821099982444 36.02701592616178 0.0003642234667928176
    vertex 29.99957125709365 56.25419124840138 5.0013016315157754
  endloop
endfacet
facet normal -0.7071067670313592 -0.7071067650225292 -0.00020706963266950898
  outer loop
    vertex 50.22749328028548 36.0262691488546 5.00136411625599
    vertex 29.99957125709365 56.25419124840138 5.0013016315157754
    vertex 50.22821099982444 36.02701592616178 0.0003642234667928176
  endloop
endfacet
facet normal 0.7069946256560241 0.7072188876810742 0.00021023948906676514
  outer loop
    vertex 41.99957208123936 52.73664205359701 5.002448421497187
    vertex 86.26857434885908 8.481691285736568 5.002404993650464
    vertex 42.00028160877493 52.7374328550576 0.002053383630404497
  endloop
endfacet
facet normal 0.7069946256560241 0.7072188876810742 0.00021023948906676514
  outer loop
    vertex 86.26928722880055 8.482451708233627 0.0014051022087940722
    vertex 42.00028160877493 52.7374328550576 0.002053383630404497
    vertex 86.26857434885908 8.481691285736568 5.002404993650464
  endloop
endfacet
facet normal 0.9999999898401077 -1.149579107994783e-08 0.0001425474814382435
  outer loop
    vertex 86.26928722880055 8.482451708233627 0.0014051022087940722
    vertex 86.26857434885908 8.481691285736568 5.002404993650464
    vertex 86.26928731185913 -6.203926261605374e-14 0.00013845503400163145
  endloop
endfacet
facet normal 0.9999999898401077 -1.149579107994783e-08 0.0001425474814382435
  outer loop
    vertex 86.26857443535654 -0.000760418663100737 5.001114029427995
    vertex 86.26928731185913 -6.203926261605374e-14 0.00013845503400163145
    vertex 86.26857434885908 8.481691285736568 5.002404993650464
  endloop
endfacet
facet normal -1.0679467488569784e-08 0.9999999879955525 0.00015494803916874151
  outer loop
    vertex 35.999571171870194 58.73664295577082 5.00252640135887
    vertex 57.24079686613394 58.73664216742986 5.005494761408779
    vertex 36.000338097499686 58.737417186126294 0.002233586370938806
  endloop
endfacet
facet normal -1.0679467488569784e-08 0.9999999879955525 0.00015494803916874151
  outer loop
    vertex 57.241498159080386 58.73741746288706 0.005494870698254892
    vertex 36.000338097499686 58.737417186126294 0.002233586370938806
    vertex 57.24079686613394 58.73664216742986 5.005494761408779
  endloop
endfacet
facet normal 3.395378607997485e-07 -0.9999999877954828 -0.0001562335402367577
  outer loop
    vertex 35.99957100611891 74.33664276823302 5.004945323186123
    vertex 36.0003379317484 74.33741699858835 0.0046525081981950754
    vertex 57.24079670038265 74.33664253365146 5.007913683321898
  endloop
endfacet
facet normal 3.395378607997485e-07 -0.9999999877954828 -0.0001562335402367577
  outer loop
    vertex 57.24149343449816 74.3374308032683 0.007152254993308587
    vertex 57.24079670038265 74.33664253365146 5.007913683321898
    vertex 36.0003379317484 74.33741699858835 0.0046525081981950754
  endloop
endfacet
facet normal 1.5342759146118688e-07 0.9999999874828801 0.00015822204795534078
  outer loop
    vertex 34.24079685404005 80.33664270745881 5.005681497531109
    vertex 52.24079668124523 80.33664251199725 5.008175655177366
    vertex 34.241493784294846 80.33743697092268 0.004464282822687887
  endloop
endfacet
facet normal 1.5342759146118688e-07 0.9999999874828801 0.00015822204795534078
  outer loop
    vertex 52.241493415360715 80.337430781614 0.00741422684877197
    vertex 34.241493784294846 80.33743697092268 0.004464282822687887
    vertex 52.24079668124523 80.33664251199725 5.008175655177366
  endloop
endfacet
facet normal -6.891206586782986e-07 -0.9999999877374088 -0.00015660366338343939
  outer loop
    vertex 41.99957208123936 52.73664205359701 5.002448421497187
    vertex 42.00028160877493 52.7374328550576 0.002053383630404497
    vertex 52.2407969790656 52.73664249667193 5.003863113944804
  endloop
endfacet
facet normal -6.891206586782986e-07 -0.9999999877374088 -0.00015660366338343939
  outer loop
    vertex 52.24149827201203 52.73741779212918 0.003863223234282321
    vertex 52.2407969790656 52.73664249667193 5.003863113944804
    vertex 42.00028160877493 52.7374328550576 0.002053383630404497
  endloop
endfacet
facet normal -0.00012818027578369588 -0.00013364946082313972 0.9999999828538192
  outer loop
    vertex 65.78384305990103 13.397437962633239 5.0012175527865965
    vertex 69.32008375644877 16.933678655855775 5.001253180824449
    vertex 61.54049498198298 17.64078604429298 5.001242208301554
  endloop
endfacet
facet normal -0.00012818027578369588 -0.00013364946082313972 0.9999999828538192
  outer loop
    vertex 50.93460032448095 28.24668071114715 5.001303832705127
    vertex 54.470841021028676 31.78292140436964 5.001339460742981
    vertex 46.691252583737736 32.49002845563209 5.001328488218137
  endloop
endfacet
facet normal -0.00012818027578369588 -0.00013364946082313972 0.9999999828538192
  outer loop
    vertex 86.26857443535654 -0.000760418663100737 5.001114029427995
    vertex 86.26857434885908 8.481691285736568 5.002404993650464
    vertex 69.32008375644877 16.933678655855775 5.001253180824449
  endloop
endfacet
facet normal -0.00012818027578369588 -0.00013364946082313972 0.9999999828538192
  outer loop
    vertex 41.99957208123936 52.73664205359701 5.002448421497187
    vertex 69.32008375644877 16.933678655855775 5.001253180824449
    vertex 86.26857434885908 8.481691285736568 5.002404993650464
  endloop
endfacet
facet normal -0.00012818027578369588 -0.00013364946082313972 0.9999999828538192
  outer loop
    vertex 65.07673567853074 21.17702673751551 5.001277836339413
    vertex 69.32008375644877 16.933678655855775 5.001253180824449
    vertex 41.99957208123936 52.73664205359701 5.002448421497187
  endloop
endfacet
facet normal -0.00012818027578369588 -0.00013364946082313972 0.9999999828538192
  outer loop
    vertex 61.54049498198298 17.64078604429298 5.001242208301554
    vertex 69.32008375644877 16.933678655855775 5.001253180824449
    vertex 65.07673567853074 21.17702673751551 5.001277836339413
  endloop
endfacet
facet normal -0.00012818027578369588 -0.00013364946082313972 0.9999999828538192
  outer loop
    vertex 54.470841021028676 31.78292140436964 5.001339460742981
    vertex 65.07673567853074 21.17702673751551 5.001277836339413
    vertex 41.99957208123936 52.73664205359701 5.002448421497187
  endloop
endfacet
facet normal -0.00012818027578369588 -0.00013364946082313972 0.9999999828538192
  outer loop
    vertex 50.22749328028548 36.0262691488546 5.00136411625599
    vertex 54.470841021028676 31.78292140436964 5.001339460742981
    vertex 41.99957208123936 52.73664205359701 5.002448421497187
  endloop
endfacet
facet normal -0.00012818027578369588 -0.00013364946082313972 0.9999999828538192
  outer loop
    vertex 46.691252583737736 32.49002845563209 5.001328488218137
    vertex 54.470841021028676 31.78292140436964 5.001339460742981
    vertex 50.22749328028548 36.0262691488546 5.00136411625599
  endloop
endfacet
facet normal -0.00012818027578369588 -0.00013364946082313972 0.9999999828538192
  outer loop
    vertex 29.99957125709365 56.25419124840138 5.0013016315157754
    vertex 50.22749328028548 36.0262691488546 5.00136411625599
    vertex 41.99957208123936 52.73664205359701 5.002448421497187
  endloop
endfacet
facet normal -0.00012818027578369588 -0.00013364946082313972 0.9999999828538192
  outer loop
    vertex 52.2407969790656 52.73664249667193 5.003863113944804
    vertex 29.99957125709365 56.25419124840138 5.0013016315157754
    vertex 41.99957208123936 52.73664205359701 5.002448421497187
  endloop
endfacet
facet normal -0.00012818027578369588 -0.00013364946082313972 0.9999999828538192
  outer loop
    vertex 57.24079686613394 58.73664216742986 5.005494761408779
    vertex 29.99957125709365 56.25419124840138 5.0013016315157754
    vertex 52.2407969790656 52.73664249667193 5.003863113944804
  endloop
endfacet
facet normal -0.00012818027578369588 -0.00013364946082313972 0.9999999828538192
  outer loop
    vertex 35.999571171870194 58.73664295577082 5.00252640135887
    vertex 29.99957125709365 56.25419124840138 5.0013016315157754
    vertex 57.24079686613394 58.73664216742986 5.005494761408779
  endloop
endfacet
facet normal -0.00012818027578369588 -0.00013364946082313972 0.9999999828538192
  outer loop
    vertex 29.9995710292708 77.33664279445725 5.004597650675581
    vertex 29.99957125709365 56.25419124840138 5.0013016315157754
    vertex 35.999571171870194 58.73664295577082 5.00252640135887
  endloop
endfacet
facet normal -0.00012818027578369588 -0.00013364946082313972 0.9999999828538192
  outer loop
    vertex 35.99957100611891 74.33664276823302 5.004945323186123
    vertex 29.9995710292708 77.33664279445725 5.004597650675581
    vertex 35.999571171870194 58.73664295577082 5.00252640135887
  endloop
endfacet
facet normal -0.00012818027578369588 -0.00013364946082313972 0.9999999828538192
  outer loop
    vertex 57.24079670038265 74.33664253365146 5.007913683321898
    vertex 52.24079668124523 80.33664251199725 5.008175655177366
    vertex 35.99957100611891 74.33664276823302 5.004945323186123
  endloop
endfacet
facet normal -0.00012818027578369588 -0.00013364946082313972 0.9999999828538192
  outer loop
    vertex 29.9995710292708 77.33664279445725 5.004597650675581
    vertex 35.99957100611891 74.33664276823302 5.004945323186123
    vertex 52.24079668124523 80.33664251199725 5.008175655177366
  endloop
endfacet
facet normal -0.00012818027578369588 -0.00013364946082313972 0.9999999828538192
  outer loop
    vertex 34.24079685404005 80.33664270745881 5.005681497531109
    vertex 29.9995710292708 77.33664279445725 5.004597650675581
    vertex 52.24079668124523 80.33664251199725 5.008175655177366
  endloop
endfacet
facet normal 0.00015093505051784264 0.00015551512702599013 -0.9999999765168277
  outer loop
    vertex 86.26928731185913 -6.203926261605374e-14 0.00013845503400163145
    vertex 69.32080147598772 16.934425433162936 0.00025328803525405977
    vertex 86.26928722880055 8.482451708233627 0.0014051022087940722
  endloop
endfacet
facet normal 0.00015093505051784264 0.00015551512702599013 -0.9999999765168277
  outer loop
    vertex 42.00028160877493 52.7374328550576 0.002053383630404497
    vertex 86.26928722880055 8.482451708233627 0.0014051022087940722
    vertex 69.32080147598772 16.934425433162936 0.00025328803525405977
  endloop
endfacet
facet normal 0.00015093505051784264 0.00015551512702599013 -0.9999999765168277
  outer loop
    vertex 65.0774533980697 21.177773514822665 0.00027794355021839066
    vertex 42.00028160877493 52.7374328550576 0.002053383630404497
    vertex 69.32080147598772 16.934425433162936 0.00025328803525405977
  endloop
endfacet
facet normal 0.00015093505051784264 0.00015551512702599013 -0.9999999765168277
  outer loop
    vertex 61.54121284502678 17.641532970914938 -0.0007576119869420484
    vertex 65.0774533980697 21.177773514822665 0.00027794355021839066
    vertex 69.32080147598772 16.934425433162936 0.00025328803525405977
  endloop
endfacet
facet normal 0.00015093505051784264 0.00015551512702599013 -0.9999999765168277
  outer loop
    vertex 54.47155874056763 31.783668181676855 0.0003395679537876061
    vertex 42.00028160877493 52.7374328550576 0.002053383630404497
    vertex 65.0774533980697 21.177773514822665 0.00027794355021839066
  endloop
endfacet
facet normal 0.00015093505051784264 0.00015551512702599013 -0.9999999765168277
  outer loop
    vertex 50.22821099982444 36.02701592616178 0.0003642234667928176
    vertex 42.00028160877493 52.7374328550576 0.002053383630404497
    vertex 54.47155874056763 31.783668181676855 0.0003395679537876061
  endloop
endfacet
facet normal 0.00015093505051784264 0.00015551512702599013 -0.9999999765168277
  outer loop
    vertex 46.6919704467815 32.490775382254 -0.0006713320703676174
    vertex 50.22821099982444 36.02701592616178 0.0003642234667928176
    vertex 54.47155874056763 31.783668181676855 0.0003395679537876061
  endloop
endfacet
facet normal 0.00015093505051784264 0.00015551512702599013 -0.9999999765168277
  outer loop
    vertex 30.00028901881545 56.25493806812658 8.804990938221643e-06
    vertex 42.00028160877493 52.7374328550576 0.002053383630404497
    vertex 50.22821099982444 36.02701592616178 0.0003642234667928176
  endloop
endfacet
facet normal 0.00015093505051784264 0.00015551512702599013 -0.9999999765168277
  outer loop
    vertex 54.47155874056763 31.783668181676855 0.0003395679537876061
    vertex 50.93531818752473 28.24742763776905 -0.0006959875833728399
    vertex 46.6919704467815 32.490775382254 -0.0006713320703676174
  endloop
endfacet
facet normal 0.00015093505051784264 0.00015551512702599013 -0.9999999765168277
  outer loop
    vertex 69.32080147598772 16.934425433162936 0.00025328803525405977
    vertex 65.78456092294482 13.398184889255182 -0.0007822675019063863
    vertex 61.54121284502678 17.641532970914938 -0.0007576119869420484
  endloop
endfacet
facet normal 0.00015093505051784264 0.00015551512702599013 -0.9999999765168277
  outer loop
    vertex 52.24149827201203 52.73741779212918 0.003863223234282321
    vertex 42.00028160877493 52.7374328550576 0.002053383630404497
    vertex 57.241498159080386 58.73741746288706 0.005494870698254892
  endloop
endfacet
facet normal 0.00015093505051784264 0.00015551512702599013 -0.9999999765168277
  outer loop
    vertex 30.00028901881545 56.25493806812658 8.804990938221643e-06
    vertex 57.241498159080386 58.73741746288706 0.005494870698254892
    vertex 42.00028160877493 52.7374328550576 0.002053383630404497
  endloop
endfacet
facet normal 0.00015093505051784264 0.00015551512702599013 -0.9999999765168277
  outer loop
    vertex 36.000338097499686 58.737417186126294 0.002233586370938806
    vertex 57.241498159080386 58.73741746288706 0.005494870698254892
    vertex 30.00028901881545 56.25493806812658 8.804990938221643e-06
  endloop
endfacet
facet normal 0.00015093505051784264 0.00015551512702599013 -0.9999999765168277
  outer loop
    vertex 30.00028901881545 56.25493806812658 8.804990938221643e-06
    vertex 30.00026795952561 77.33743705792119 0.0033804359671620794
    vertex 36.000338097499686 58.737417186126294 0.002233586370938806
  endloop
endfacet
facet normal 0.00015093505051784264 0.00015551512702599013 -0.9999999765168277
  outer loop
    vertex 36.0003379317484 74.33741699858835 0.0046525081981950754
    vertex 36.000338097499686 58.737417186126294 0.002233586370938806
    vertex 30.00026795952561 77.33743705792119 0.0033804359671620794
  endloop
endfacet
facet normal 0.00015093505051784264 0.00015551512702599013 -0.9999999765168277
  outer loop
    vertex 57.24149343449816 74.3374308032683 0.007152254993308587
    vertex 36.0003379317484 74.33741699858835 0.0046525081981950754
    vertex 30.00026795952561 77.33743705792119 0.0033804359671620794
  endloop
endfacet
facet normal 0.00015093505051784264 0.00015551512702599013 -0.9999999765168277
  outer loop
    vertex 52.241493415360715 80.337430781614 0.00741422684877197
    vertex 57.24149343449816 74.3374308032683 0.007152254993308587
    vertex 30.00026795952561 77.33743705792119 0.0033804359671620794
  endloop
endfacet
facet normal 0.00015093505051784264 0.00015551512702599013 -0.9999999765168277
  outer loop
    vertex 34.241493784294846 80.33743697092268 0.004464282822687887
    vertex 52.241493415360715 80.337430781614 0.00741422684877197
    vertex 30.00026795952561 77.33743705792119 0.0033804359671620794
  endloop
endfacet
endsolid LCD Mount
